<?xml version="1.0" encoding="UTF-8"?>
<svg id="blue_rock_01" xmlns="http://www.w3.org/2000/svg" xmlns:xlink="http://www.w3.org/1999/xlink" viewBox="0 0 1800.45 523.78">
  <defs>
    <style>
      .cls-1 {
        fill: none;
      }

      .cls-2 {
        clip-path: url(#clippath);
      }

      .cls-3, .cls-4 {
        fill: #6bd4f2;
      }

      .cls-5 {
        fill: #47fff2;
      }

      .cls-5, .cls-4 {
        fill-rule: evenodd;
      }
    </style>
    <clipPath id="clippath">
      <rect class="cls-1" x="77.57" y="64.25" width="1000" height="400"/>
    </clipPath>
  </defs>
  <g class="cls-2">
    <g>
      <polygon class="cls-5" points="525.08 448.93 524.23 447.14 524.23 446.19 525.61 448.51 525.08 448.93"/>
      <polygon class="cls-5" points="528.4 448.93 528.4 448.32 528.92 448.48 529.03 448.81 528.4 448.93"/>
      <polygon class="cls-5" points="522.13 450.96 521.63 450.68 521.63 450.2 522.35 449.94 522.13 450.96"/>
      <polygon class="cls-5" points="477.01 455.06 476.01 453.27 477.01 452 478.14 454.48 477.01 455.06"/>
      <polygon class="cls-5" points="476.01 433.24 477.08 435.93 479.56 436.37 477.08 432.37 476.01 433.24"/>
      <polygon class="cls-5" points="810.22 449.94 811.23 446.1 815.05 444.31 812.64 450.52 810.22 449.94"/>
      <polygon class="cls-5" points="812.47 431.19 813.04 428.14 815.05 427.15 812.47 431.19"/>
      <polygon class="cls-5" points="820.45 454.55 822.16 452.16 824.52 452.61 822.49 454.55 820.45 454.55"/>
      <polygon class="cls-5" points="898.49 455.24 898.49 452.61 899.15 452.16 901.03 451.21 899.76 455.85 898.49 455.24"/>
      <polygon class="cls-5" points="371.18 457.11 370.24 455.51 371.18 455.51 372.13 457.11 371.18 457.11"/>
      <polygon class="cls-5" points="383.31 460.53 383.31 459.36 384.16 457.11 385.39 460.53 383.31 460.53"/>
      <polygon class="cls-5" points="1023.54 421.08 1026.19 415.85 1027.33 414.63 1026.19 421.51 1023.54 421.08"/>
      <polygon class="cls-5" points="1032.26 421.91 1034.34 420.17 1037.09 420.17 1032.26 421.91"/>
      <polygon class="cls-5" points="1067.88 421.04 1068.83 418.07 1069.87 418.07 1068.87 421.28 1067.88 421.04"/>
      <g>
        <path class="cls-4" d="M730.84,428.63c0,.59-.48,1.07-1.07,1.07s-1.07-.48-1.07-1.07,.48-1.07,1.07-1.07,1.07,.48,1.07,1.07Z"/>
        <path class="cls-4" d="M729.77,408.38c0,.59-.48,1.07-1.07,1.07s-1.07-.48-1.07-1.07,.48-1.07,1.07-1.07,1.07,.48,1.07,1.07Z"/>
        <circle class="cls-3" cx="744.03" cy="433.02" r=".76"/>
        <path class="cls-4" d="M869.15,449.11c0,.42-.34,.76-.76,.76s-.76-.34-.76-.76,.34-.76,.76-.76,.76,.34,.76,.76Z"/>
        <path class="cls-4" d="M751.99,410.78c0,.42-.34,.76-.76,.76s-.76-.34-.76-.76,.34-.76,.76-.76,.76,.34,.76,.76Z"/>
        <path class="cls-4" d="M732.13,424.41c0,.2-.16,.36-.36,.36s-.36-.16-.36-.36,.16-.36,.36-.36,.36,.16,.36,.36Z"/>
        <circle class="cls-3" cx="734.94" cy="401.39" r=".36"/>
        <path class="cls-4" d="M870.03,396.42c.42-.42,1.1-.42,1.51,0,.42,.42,.42,1.1,0,1.51s-1.1,.42-1.51,0c-.42-.42-.42-1.1,0-1.51Z"/>
        <path class="cls-4" d="M782.16,385.93c.42-.42,1.1-.42,1.51,0,.42,.42,.42,1.1,0,1.51s-1.1,.42-1.51,0c-.42-.42-.42-1.1,0-1.51Z"/>
        <path class="cls-4" d="M890.27,420.98c.3-.3,.77-.3,1.07,0,.3,.3,.3,.77,0,1.07s-.77,.3-1.07,0c-.3-.3-.3-.77,0-1.07Z"/>
        <path class="cls-4" d="M773.31,386.97c.14-.14,.37-.14,.5,0,.14,.14,.14,.37,0,.5-.14,.14-.37,.14-.5,0-.14-.14-.14-.37,0-.5Z"/>
        <path class="cls-4" d="M871.83,425.35c.07-.07,.18-.07,.25,0,.07,.07,.07,.18,0,.25-.07,.07-.18,.07-.25,0s-.07-.18,0-.25Z"/>
        <path class="cls-4" d="M857.21,425.58c.14-.14,.37-.14,.5,0,.14,.14,.14,.37,0,.5-.14,.14-.37,.14-.5,0s-.14-.37,0-.5Z"/>
        <path class="cls-4" d="M893.95,447.23c.14-.14,.37-.14,.5,0,.14,.14,.14,.37,0,.5-.14,.14-.37,.14-.5,0s-.14-.37,0-.5Z"/>
        <circle class="cls-3" cx="852.67" cy="444.97" r=".36"/>
        <path class="cls-4" d="M746.54,418.27c.07-.07,.18-.07,.25,0,.07,.07,.07,.18,0,.25-.07,.07-.18,.07-.25,0-.07-.07-.07-.18,0-.25Z"/>
        <path class="cls-4" d="M860.75,454.2c.14-.14,.37-.14,.5,0,.14,.14,.14,.37,0,.5-.14,.14-.37,.14-.5,0s-.14-.37,0-.5Z"/>
        <path class="cls-4" d="M866.7,442.33c.3-.3,.77-.3,1.07,0,.3,.3,.3,.77,0,1.07-.3,.3-.77,.3-1.07,0s-.3-.77,0-1.07Z"/>
        <path class="cls-4" d="M873.8,438.09c.14-.14,.37-.14,.5,0,.14,.14,.14,.37,0,.5-.14,.14-.37,.14-.5,0s-.14-.37,0-.5Z"/>
        <path class="cls-4" d="M869.05,436.37c.14-.14,.37-.14,.5,0s.14,.37,0,.5-.37,.14-.5,0c-.14-.14-.14-.37,0-.5Z"/>
        <path class="cls-4" d="M864.09,439.46c.07-.07,.18-.07,.25,0,.07,.07,.07,.18,0,.25-.07,.07-.18,.07-.25,0-.07-.07-.07-.18,0-.25Z"/>
        <path class="cls-4" d="M868.04,439.3c.07-.07,.18-.07,.25,0,.07,.07,.07,.18,0,.25-.07,.07-.18,.07-.25,0-.07-.07-.07-.18,0-.25Z"/>
        <path class="cls-4" d="M862.99,442.43c.14-.14,.37-.14,.5,0,.14,.14,.14,.37,0,.5-.14,.14-.37,.14-.5,0s-.14-.37,0-.5Z"/>
        <path class="cls-4" d="M767.88,414.2c.3-.3,.77-.3,1.07,0s.3,.77,0,1.07c-.3,.3-.77,.3-1.07,0s-.3-.77,0-1.07Z"/>
        <path class="cls-4" d="M768.91,391.14c.3-.3,.77-.3,1.07,0s.3,.77,0,1.07-.77,.3-1.07,0c-.3-.3-.3-.77,0-1.07Z"/>
        <path class="cls-4" d="M765.64,424.52c.22-.22,.57-.22,.79,0s.22,.57,0,.79-.57,.22-.79,0c-.22-.22-.22-.57,0-.79Z"/>
        <path class="cls-4" d="M769.32,416.14c.14-.14,.37-.14,.5,0,.14,.14,.14,.37,0,.5-.14,.14-.37,.14-.5,0s-.14-.37,0-.5Z"/>
        <path class="cls-4" d="M774.98,409.97c.14-.14,.37-.14,.5,0s.14,.37,0,.5c-.14,.14-.37,.14-.5,0-.14-.14-.14-.37,0-.5Z"/>
        <path class="cls-4" d="M781.6,388.7c.14-.14,.37-.14,.5,0,.14,.14,.14,.37,0,.5-.14,.14-.37,.14-.5,0s-.14-.37,0-.5Z"/>
        <circle class="cls-3" cx="770.49" cy="408.5" r=".36"/>
        <path class="cls-4" d="M765.27,411.34c.07-.07,.18-.07,.25,0,.07,.07,.07,.18,0,.25-.07,.07-.18,.07-.25,0-.07-.07-.07-.18,0-.25Z"/>
        <path class="cls-4" d="M758.45,426.01c.07-.07,.18-.07,.25,0s.07,.18,0,.25-.18,.07-.25,0c-.07-.07-.07-.18,0-.25Z"/>
        <path class="cls-4" d="M779.2,428.82c.07-.07,.18-.07,.25,0,.07,.07,.07,.18,0,.25-.07,.07-.18,.07-.25,0s-.07-.18,0-.25Z"/>
        <path class="cls-4" d="M769.22,411.17c.07-.07,.18-.07,.25,0,.07,.07,.07,.18,0,.25s-.18,.07-.25,0c-.07-.07-.07-.18,0-.25Z"/>
        <path class="cls-4" d="M764.18,414.3c.14-.14,.37-.14,.5,0s.14,.37,0,.5-.37,.14-.5,0c-.14-.14-.14-.37,0-.5Z"/>
        <path class="cls-4" d="M739.83,414.08c.14-.14,.37-.14,.5,0,.14,.14,.14,.37,0,.5-.14,.14-.37,.14-.5,0-.14-.14-.14-.37,0-.5Z"/>
        <path class="cls-4" d="M775.5,426.13c.14-.14,.37-.14,.5,0s.14,.37,0,.5-.37,.14-.5,0c-.14-.14-.14-.37,0-.5Z"/>
        <path class="cls-4" d="M729.84,447.04c.3-.3,.77-.3,1.07,0s.3,.77,0,1.07c-.3,.3-.77,.3-1.07,0-.3-.3-.3-.77,0-1.07Z"/>
      </g>
      <g>
        <path class="cls-4" d="M371.29,425.53c.3,.65,.02,1.42-.63,1.72-.65,.3-1.42,.02-1.72-.63-.3-.65-.02-1.42,.63-1.72s1.42-.02,1.72,.63Z"/>
        <path class="cls-4" d="M359.84,403.81c.3,.65,.02,1.42-.63,1.72-.65,.3-1.42,.02-1.72-.63-.3-.65-.02-1.42,.63-1.72,.65-.3,1.42-.02,1.72,.63Z"/>
        <path class="cls-4" d="M388.86,423.29c.21,.46,.01,1-.45,1.22-.46,.21-1,.01-1.22-.45-.21-.46-.01-1,.45-1.22,.46-.21,1-.01,1.22,.45Z"/>
        <path class="cls-4" d="M368.58,360.16c.21,.46,.01,1-.45,1.22-.46,.21-1,.01-1.22-.45-.21-.46-.01-1,.45-1.22,.46-.21,1-.01,1.22,.45Z"/>
        <path class="cls-4" d="M385.49,395.17c.21,.46,.01,1-.45,1.22-.46,.21-1,.01-1.22-.45-.21-.46-.01-1,.45-1.22s1-.01,1.22,.45Z"/>
        <path class="cls-4" d="M370.57,420.24c.1,.22,0,.47-.21,.57-.22,.1-.47,0-.57-.21-.1-.22,0-.47,.21-.57s.47,0,.57,.21Z"/>
        <path class="cls-4" d="M362.37,393.31c.1,.22,0,.47-.21,.57-.22,.1-.47,0-.57-.21s0-.47,.21-.57,.47,0,.57,.21Z"/>
        <path class="cls-4" d="M365.89,354.87c.25-.67,.99-1.02,1.66-.77s1.02,.99,.77,1.66c-.25,.67-.99,1.02-1.66,.77-.67-.25-1.02-.99-.77-1.66Z"/>
        <path class="cls-4" d="M406.08,352.52c.25-.67,.99-1.02,1.66-.77,.67,.25,1.02,.99,.77,1.66s-.99,1.02-1.66,.77c-.67-.25-1.02-.99-.77-1.66Z"/>
        <path class="cls-4" d="M381.83,340.48c.18-.48,.7-.72,1.18-.54s.72,.7,.54,1.18c-.18,.48-.7,.72-1.18,.54-.48-.17-.72-.7-.54-1.18Z"/>
        <path class="cls-4" d="M396.87,358.15c.08-.22,.33-.34,.55-.26s.34,.33,.26,.55c-.08,.22-.33,.34-.55,.26-.22-.08-.34-.33-.26-.55Z"/>
        <path class="cls-4" d="M359.47,332.67c.04-.11,.17-.17,.28-.13,.11,.04,.17,.17,.13,.28-.04,.11-.17,.17-.28,.13s-.17-.17-.13-.28Z"/>
        <path class="cls-4" d="M343.5,340.35c.08-.22,.33-.34,.55-.26,.22,.08,.34,.33,.26,.55-.08,.22-.33,.34-.55,.26s-.34-.33-.26-.56Z"/>
        <path class="cls-4" d="M394.91,345.51c.08-.22,.33-.34,.55-.26s.34,.33,.26,.55c-.08,.22-.33,.34-.55,.26-.22-.08-.34-.33-.26-.55Z"/>
        <path class="cls-4" d="M347.95,363.82c.08-.22,.33-.34,.55-.26,.22,.08,.34,.33,.26,.55-.08,.22-.33,.34-.55,.26-.22-.08-.34-.33-.26-.55Z"/>
        <path class="cls-4" d="M383.3,406.17c.04-.11,.17-.17,.28-.13s.17,.17,.13,.28c-.04,.11-.17,.17-.28,.13-.11-.04-.17-.17-.13-.28Z"/>
        <path class="cls-4" d="M361.93,370.02c.08-.22,.33-.34,.55-.26,.22,.08,.34,.33,.26,.55-.08,.22-.33,.34-.55,.26-.22-.08-.34-.33-.26-.56Z"/>
        <path class="cls-4" d="M362.45,353.95c.18-.48,.7-.72,1.18-.54s.72,.7,.54,1.18-.7,.72-1.18,.54c-.48-.18-.72-.7-.54-1.18Z"/>
        <path class="cls-4" d="M368.11,345.69c.08-.22,.33-.34,.55-.26,.22,.08,.34,.33,.26,.55-.08,.22-.33,.34-.55,.26-.22-.08-.34-.33-.26-.55Z"/>
        <path class="cls-4" d="M362.01,346.2c.08-.22,.33-.34,.55-.26,.22,.08,.34,.33,.26,.56-.08,.22-.33,.34-.55,.26-.22-.08-.34-.33-.26-.56Z"/>
        <path class="cls-4" d="M358.12,352.12c.04-.11,.17-.17,.28-.13,.11,.04,.17,.17,.13,.28-.04,.11-.17,.17-.28,.13-.11-.04-.17-.17-.13-.28Z"/>
        <path class="cls-4" d="M362.38,349.94c.04-.11,.17-.17,.28-.13,.11,.04,.17,.17,.13,.28s-.17,.17-.28,.13c-.11-.04-.17-.17-.13-.28Z"/>
        <path class="cls-4" d="M358.42,355.94c.08-.22,.33-.34,.55-.26,.22,.08,.34,.33,.26,.55-.08,.22-.33,.34-.55,.26-.22-.08-.34-.33-.26-.55Z"/>
        <path class="cls-4" d="M404.72,390.86c.18-.48,.7-.72,1.18-.54,.48,.18,.72,.7,.54,1.18s-.7,.72-1.18,.54c-.48-.18-.72-.7-.54-1.18Z"/>
        <path class="cls-4" d="M394.14,364.98c.18-.48,.7-.72,1.18-.54,.48,.18,.72,.7,.54,1.18-.18,.48-.7,.72-1.18,.54-.48-.18-.72-.7-.54-1.18Z"/>
        <path class="cls-4" d="M407.49,403.35c.13-.35,.52-.53,.86-.4,.35,.13,.53,.52,.4,.86-.13,.35-.52,.53-.86,.4-.35-.13-.53-.52-.4-.86Z"/>
        <path class="cls-4" d="M407.28,392.26c.08-.22,.33-.34,.55-.26,.22,.08,.34,.33,.26,.56-.08,.22-.33,.34-.55,.26-.22-.08-.34-.33-.26-.56Z"/>
        <path class="cls-4" d="M410.38,382.6c.08-.22,.33-.34,.55-.26,.22,.08,.34,.33,.26,.55-.08,.22-.33,.34-.55,.26-.22-.08-.34-.33-.26-.55Z"/>
        <path class="cls-4" d="M406.86,355.85c.08-.22,.33-.34,.55-.26,.22,.08,.34,.33,.26,.55-.08,.22-.33,.34-.55,.26-.22-.08-.34-.33-.26-.55Z"/>
        <path class="cls-4" d="M404.28,383.12c.08-.22,.33-.34,.55-.26,.22,.08,.34,.33,.26,.56-.08,.22-.33,.34-.55,.26-.22-.08-.34-.33-.26-.56Z"/>
        <path class="cls-4" d="M400.39,389.04c.04-.11,.17-.17,.28-.13,.11,.04,.17,.17,.13,.28-.04,.11-.17,.17-.28,.13-.11-.04-.17-.17-.13-.28Z"/>
        <path class="cls-4" d="M400.33,408.65c.04-.11,.17-.17,.28-.13,.11,.04,.17,.17,.13,.28-.04,.11-.17,.17-.28,.13-.11-.04-.17-.17-.13-.28Z"/>
        <path class="cls-4" d="M424.58,401.2c.04-.11,.17-.17,.28-.13,.11,.04,.17,.17,.13,.28-.04,.11-.17,.17-.28,.13s-.17-.17-.13-.28Z"/>
        <path class="cls-4" d="M404.65,386.85c.04-.11,.17-.17,.28-.13,.11,.04,.17,.17,.13,.28s-.17,.17-.28,.13c-.11-.04-.17-.17-.13-.28Z"/>
        <path class="cls-4" d="M400.69,392.86c.08-.22,.33-.34,.55-.26,.22,.08,.34,.33,.26,.55-.08,.22-.33,.34-.55,.26-.22-.08-.34-.33-.26-.55Z"/>
        <path class="cls-4" d="M373.8,404.97c.08-.22,.33-.34,.55-.26s.34,.33,.26,.55c-.08,.22-.33,.34-.55,.26-.22-.08-.34-.33-.26-.55Z"/>
        <path class="cls-4" d="M419.16,400.12c.08-.22,.33-.34,.55-.26,.22,.08,.34,.33,.26,.55-.08,.22-.33,.34-.55,.26-.22-.08-.34-.33-.26-.55Z"/>
        <path class="cls-4" d="M379.54,446.29c.18-.48,.7-.72,1.18-.54,.48,.17,.72,.7,.54,1.18-.18,.48-.7,.72-1.18,.54-.48-.18-.72-.7-.54-1.18Z"/>
      </g>
    </g>
  </g>
</svg>