<?xml version="1.0" encoding="UTF-8"?>
<svg xmlns="http://www.w3.org/2000/svg" xmlns:xlink="http://www.w3.org/1999/xlink" viewBox="0 0 1800.45 523.78">
  <defs>
    <style>
      .cls-1 {
        fill: none;
      }

      .cls-2, .cls-3, .cls-4, .cls-5, .cls-6, .cls-7, .cls-8, .cls-9, .cls-10, .cls-11, .cls-12, .cls-13, .cls-14 {
        fill-rule: evenodd;
      }

      .cls-2, .cls-5 {
        fill: #ecaba4;
      }

      .cls-2, .cls-5, .cls-14 {
        mix-blend-mode: soft-light;
      }

      .cls-2, .cls-12 {
        opacity: .5;
      }

      .cls-3 {
        fill: url(#_ÂÁ_Ï_ÌÌ_È_ËÂÌÚ_84);
      }

      .cls-15 {
        clip-path: url(#clippath);
      }

      .cls-16 {
        fill: #471737;
      }

      .cls-4 {
        fill: url(#_ÂÁ_Ï_ÌÌ_È_ËÂÌÚ_114);
      }

      .cls-6 {
        opacity: .36;
      }

      .cls-6, .cls-12, .cls-13 {
        fill: #ae9aff;
        mix-blend-mode: multiply;
      }

      .cls-7 {
        fill: #48163a;
      }

      .cls-8 {
        fill: #47abf2;
      }

      .cls-9 {
        fill: #a45754;
      }

      .cls-10 {
        fill: #401738;
      }

      .cls-11 {
        fill: #69264d;
      }

      .cls-13, .cls-14 {
        opacity: .2;
      }

      .cls-17 {
        isolation: isolate;
      }

      .cls-14 {
        fill: #ecdedd;
      }
    </style>
    <clipPath id="clippath">
      <rect class="cls-1" x="77.57" y="64.25" width="1000" height="400"/>
    </clipPath>
    <linearGradient id="_ÂÁ_Ï_ÌÌ_È_ËÂÌÚ_114" data-name="¡ÂÁ˚ÏˇÌÌ˚È „‡‰ËÂÌÚ 114" x1="665.41" y1="391.52" x2="665.41" y2="205.59" gradientUnits="userSpaceOnUse">
      <stop offset="0" stop-color="#733152"/>
      <stop offset="1" stop-color="#4f1d4f"/>
    </linearGradient>
    <linearGradient id="_ÂÁ_Ï_ÌÌ_È_ËÂÌÚ_84" data-name="¡ÂÁ˚ÏˇÌÌ˚È „‡‰ËÂÌÚ 84" x1="628.74" y1="221.38" x2="628.74" y2="115.02" gradientUnits="userSpaceOnUse">
      <stop offset="0" stop-color="#5c214a"/>
      <stop offset="1" stop-color="#4f1d4f"/>
    </linearGradient>
  </defs>
  <g class="cls-17">
    <g id="center_back" data-name="center back">
      <g class="cls-15">
        <g>
          <g>
            <g>
              <polygon class="cls-7" points="667.31 289.2 655.71 299.91 661.51 323.7 663.53 325.18 664.17 328.49 643.71 320.41 632.18 304.09 635.37 271.12 650.37 268.75 667.31 289.2"/>
              <path class="cls-4" d="M738.95,375.99l-5.31-1.52-8.08,2.15-32.46-19.33-5.69-21.35-5.11-4.1-14.97-6.63-6.07-39.79,6.05,3.78,3.18,12.51,1.61,.97,4.13,21.3,1.05-.29-9.45-46.86-7.51-27.41-16.87-20.84-11.38-22.99-12.79,10.49,3.52,30.69-.95,2.27,4.93,34.74,6.95,78.56-13.39-19.7-7.5-.8-20.07,18.36-12.66,31.32,51.22-2.27,43.07-2.73,23.85-1.52,52.45-3.33-11.75-5.68Zm-95.24-55.58l-2.4-10.61-4.17-3.03-1.77-15.54,16.29-14.53,4.05,14.66h1.26l7.2,37.13-20.46-8.08Z"/>
            </g>
            <polygon class="cls-5" points="722.91 378.01 696.13 370.59 698.25 385 698.4 386 677.93 386.45 665.4 330.13 658.8 293.38 632.07 205.59 643.45 228.58 660.32 249.42 667.83 276.83 677.28 323.69 676.23 323.98 672.1 302.68 670.49 301.71 667.31 289.2 661.26 285.42 667.33 325.21 682.3 331.84 687.41 335.94 693.1 357.29 725.56 376.62 722.91 378.01"/>
            <polygon class="cls-7" points="665 291.34 669.1 302.6 671.38 303.45 675.41 323.98 676.23 323.98 670.24 292.88 667.31 289.2 665 291.34"/>
            <polygon class="cls-5" points="661.51 323.7 643.71 320.41 664.17 328.49 663.53 325.18 661.51 323.7"/>
            <polygon class="cls-2" points="641.31 309.8 658.51 311.4 661.51 323.7 643.71 320.41 641.31 309.8"/>
            <polygon class="cls-5" points="612.85 341.84 612.85 360.21 619.21 387.99 622.24 387.99 633.73 362.34 620.34 342.64 612.85 341.84"/>
            <g>
              <polygon class="cls-16" points="663.28 260.53 646.51 253.29 646.61 253.06 663.38 260.3 663.28 260.53"/>
              <polygon class="cls-16" points="626.63 282.26 626.47 282.06 649.7 263.63 649.85 263.83 626.63 282.26"/>
              <rect class="cls-16" x="622.56" y="263.74" width="27.37" height=".25" transform="translate(-35.15 417.71) rotate(-35.43)"/>
              <polygon class="cls-16" points="632.06 277.76 630.2 268.09 630.45 268.04 632.31 277.71 632.06 277.76"/>
              <polygon class="cls-16" points="622.89 246.87 622.72 246.68 639.79 230.91 639.86 230.93 647.44 233.22 647.37 233.46 639.86 231.19 622.89 246.87"/>
              <polygon class="cls-16" points="630.24 325.54 630.15 325.31 643.67 320.3 643.76 320.53 630.24 325.54"/>
              <polygon class="cls-16" points="639.92 261.19 635.25 235.18 635.5 235.14 640.17 261.15 639.92 261.19"/>
              <rect class="cls-16" x="631.01" y="345.19" width="37.87" height=".25" transform="translate(-85.75 324.76) rotate(-26.38)"/>
              <polygon class="cls-16" points="633.8 362.45 633.67 362.24 667.81 340.94 667.85 340.95 689.57 343.85 689.54 344.09 667.86 341.2 633.8 362.45"/>
              <rect class="cls-16" x="624.55" y="376.39" width="50.55" height=".25" transform="translate(-63.08 140.3) rotate(-11.76)"/>
              <polygon class="cls-16" points="653.83 388.03 649.82 376.55 650.06 376.47 654.06 387.95 653.83 388.03"/>
              <rect class="cls-16" x="646.9" y="346.99" width=".25" height="6.76" transform="translate(-49.02 111.77) rotate(-9.51)"/>
              <polygon class="cls-16" points="651.83 350.98 651.82 344.33 652.07 344.33 652.08 350.98 651.83 350.98"/>
            </g>
            <polygon class="cls-6" points="632.07 205.59 651.41 269.11 649.75 270.01 638.16 236.03 635.1 238.01 640.05 265.75 637.86 268.64 629.31 217.8 625.08 219.66 628.74 243.86 623.63 249.68 619.28 216.08 632.07 205.59"/>
            <polygon class="cls-13" points="648.67 322.37 664.17 328.49 657.88 296.02 658.8 293.38 666.37 334.46 677.93 386.45 670.62 386.76 663.33 335.63 659.56 333.67 663.33 363.04 656.53 363.04 648.67 322.37"/>
            <polygon class="cls-13" points="640.05 371.38 626.55 265.75 630.19 258.93 643.71 367.87 640.05 371.38"/>
            <polygon class="cls-14" points="667.31 329.13 687.41 335.94 691.42 350.98 685.14 349.76 689.55 371.38 682.49 373.21 677.93 340.07 674.58 338.63 676.23 353.71 672.64 354.26 667.31 329.13"/>
            <polygon class="cls-14" points="643.45 228.58 637.71 225.01 653.47 275.88 654.95 275.88 648.38 248.85 649.75 249.04 658.43 277.32 668.55 280.37 667.83 276.83 660.32 249.42 643.45 228.58"/>
            <polygon class="cls-11" points="693.1 357.29 693.1 366.71 696.13 370.59 698.4 386 724.55 384.07 722.91 378.01 698.97 371.38 693.57 366.47 693.1 357.29"/>
            <polygon class="cls-9" points="647.58 373.21 647.58 367.28 648.67 372.82 647.58 373.21"/>
            <polygon class="cls-9" points="648.67 366.85 648.67 363.82 649.94 363.04 649.83 366.28 648.67 366.85"/>
            <polygon class="cls-9" points="638.78 282.16 638.16 278.54 638.78 277.32 640.05 281.06 638.78 282.16"/>
            <polygon class="cls-9" points="640.05 250.56 640.05 254.09 641.37 254.09 640.49 250.56 640.05 250.56"/>
          </g>
          <g>
            <polygon class="cls-3" points="617.82 190.05 613.27 186.01 607.71 126.14 610.62 115.02 616.55 115.91 628.3 143.95 638.02 167.51 649.77 219.99 648.13 221.38 643.08 203.19 638.91 201.93 631.96 202.69 624.64 200.41 620.72 180.08 618.83 179.57 619.08 190.05 617.82 190.05"/>
            <polygon class="cls-5" points="616.55 115.91 610.62 115.02 622.43 161.4 625.36 171.93 630.86 198.17 642.51 199.21 649.77 219.99 638.02 167.51 628.3 143.95 616.55 115.91"/>
            <polygon class="cls-5" points="618.83 179.57 615.7 179.57 615.7 185.48 619.08 190.05 618.83 179.57"/>
            <polygon class="cls-10" points="620.72 180.08 626.28 176.29 615.7 179.57 618.83 179.57 620.72 180.08"/>
            <rect class="cls-16" x="610.03" y="160.33" width="12.47" height=".5" transform="translate(25.34 398.02) rotate(-36.5)"/>
            <rect class="cls-16" x="608.43" y="139.39" width="8.6" height=".5" transform="translate(29.66 374.1) rotate(-34.74)"/>
            <rect class="cls-16" x="614.81" y="139.37" width=".5" height="20.63" transform="translate(-17.92 142.83) rotate(-13.06)"/>
            <rect class="cls-16" x="610.89" y="170.23" width="14.23" height=".5" transform="translate(15.4 389.24) rotate(-35.37)"/>
            <polygon class="cls-12" points="610.62 115.02 625.64 173.26 630.86 198.17 628.74 198.93 619.77 159.74 618.79 161.4 619.58 176.29 615.7 176.29 607.71 126.14 610.62 115.02"/>
            <rect class="cls-16" x="621.3" y="132.99" width=".5" height="10.85" transform="translate(346.58 712.76) rotate(-76.97)"/>
            <polygon class="cls-14" points="610.62 115.02 623.55 165.42 628.74 165.42 622.36 146.29 624.64 146.29 627.54 156.87 635.88 161.61 616.55 115.91 610.62 115.02"/>
            <rect class="cls-16" x="630.66" y="159.8" width=".5" height="14.26" transform="translate(413.3 782.2) rotate(-85.34)"/>
            <polygon class="cls-8" points="642.51 199.21 643.08 203.19 638.91 201.93 631.96 202.69 624.64 200.41 630.33 195.64 642.51 199.21"/>
          </g>
        </g>
      </g>
    </g>
  </g>
</svg>