<?xml version="1.0" encoding="UTF-8"?>
<svg xmlns="http://www.w3.org/2000/svg" xmlns:xlink="http://www.w3.org/1999/xlink" viewBox="0 0 1800.45 523.78">
  <defs>
    <style>
      .cls-1 {
        opacity: .91;
      }

      .cls-1, .cls-2, .cls-3, .cls-4, .cls-5, .cls-6, .cls-7, .cls-8, .cls-9, .cls-10, .cls-11, .cls-12, .cls-13, .cls-14, .cls-15, .cls-16, .cls-17, .cls-18, .cls-19 {
        fill-rule: evenodd;
      }

      .cls-1, .cls-2, .cls-3, .cls-6, .cls-7, .cls-18, .cls-19 {
        mix-blend-mode: soft-light;
      }

      .cls-1, .cls-2, .cls-6 {
        fill: #ecaba4;
      }

      .cls-2, .cls-3, .cls-8, .cls-15, .cls-16, .cls-17 {
        opacity: .5;
      }

      .cls-3, .cls-19 {
        fill: #ecdedd;
      }

      .cls-4 {
        fill: url(#_ÂÁ_Ï_ÌÌ_È_ËÂÌÚ_84-2);
      }

      .cls-5 {
        fill: url(#_ÂÁ_Ï_ÌÌ_È_ËÂÌÚ_84);
      }

      .cls-20 {
        fill: #471737;
      }

      .cls-7 {
        fill: #f4ceca;
      }

      .cls-8, .cls-9 {
        fill: #1d0c27;
      }

      .cls-9 {
        opacity: .6;
      }

      .cls-10 {
        fill: #479cf2;
      }

      .cls-11 {
        fill: #47fff2;
      }

      .cls-12 {
        fill: #a45754;
      }

      .cls-13 {
        fill: #401738;
      }

      .cls-14 {
        fill: #331732;
      }

      .cls-15 {
        fill: #ae799a;
      }

      .cls-15, .cls-16, .cls-17 {
        mix-blend-mode: multiply;
      }

      .cls-16, .cls-18 {
        fill: #ae9aff;
      }

      .cls-17 {
        fill: #b3a9be;
      }

      .cls-21 {
        isolation: isolate;
      }

      .cls-18, .cls-19 {
        opacity: .2;
      }
    </style>
    <linearGradient id="_ÂÁ_Ï_ÌÌ_È_ËÂÌÚ_84" data-name="¡ÂÁ˚ÏˇÌÌ˚È „‡‰ËÂÌÚ 84" x1="447.16" y1="424.88" x2="447.16" y2="121.41" gradientUnits="userSpaceOnUse">
      <stop offset="0" stop-color="#5c214a"/>
      <stop offset="1" stop-color="#4f1d4f"/>
    </linearGradient>
    <linearGradient id="_ÂÁ_Ï_ÌÌ_È_ËÂÌÚ_84-2" data-name="¡ÂÁ˚ÏˇÌÌ˚È „‡‰ËÂÌÚ 84" x1="561.79" y1="419.94" x2="561.79" y2="88.24" xlink:href="#_ÂÁ_Ï_ÌÌ_È_ËÂÌÚ_84"/>
  </defs>
  <g class="cls-21">
    <g id="center_main" data-name="center main">
      <g>
        <path class="cls-5" d="M482.41,322.37l9.47-11.94,4.17-14.97-8.53-17.24,1.14-13.97-2.08-3.84,17.05-123.54-13.01-15.47-13.77,5.08-19.9,84.82,1.09,3.88-1.77,8.84-4.17,.88-4.55,6.44,2.49,4.31-1.41-2.44-11.51,43.83,.83-.56-2.53,1.72-31.83,121.26-6.44,1.69-6.44,23.7,78.82-4.93,24.76-20.46-10.55-13.45-2.65-1.89-1.52-19.33-4.17-7.39,4.93-35.05h2.08Zm-37.52-50.59l-6.49,4.41,2.75-11.19,.95-.75,7.96-28.55,2.16,3.74-7.33,32.34Z"/>
        <polygon class="cls-6" points="490.62 121.41 474.83 209.63 476.34 214.05 466.06 273.26 453.72 279.21 443.75 326.54 474.83 325.97 436.55 328.49 420.26 403.14 422.72 410.09 428.59 408.7 435.79 391.9 473.12 364.81 480.32 322.37 473.88 316.87 473.12 303.47 485.06 288.64 487.52 278.22 488.66 264.25 486.57 260.41 503.63 136.88 490.62 121.41"/>
        <polygon class="cls-7" points="496.05 295.46 491.5 298.62 481.14 301.21 477.35 302.02 487.47 288.98 488.01 279.21 496.05 295.46"/>
        <polygon class="cls-1" points="482.41 322.37 477.35 316.87 477.35 304.88 491.5 298.62 496.05 295.46 491.88 310.43 482.41 322.37"/>
        <polygon class="cls-1" points="479.56 364.81 474.54 378.01 473.69 383.19 467.37 387.99 460.42 419.94 482.11 408.7 480.13 393.42 481.08 384.14 479.56 364.81"/>
        <polygon class="cls-1" points="483.73 386.03 481.13 393.9 482.43 408.54 491.12 404.03 494.28 399.48 483.73 386.03"/>
        <polygon class="cls-7" points="465.48 388.58 456.07 391.52 435.79 391.9 473.37 366.01 475.39 357.42 479.56 364.81 474.07 375.7 465.48 388.58"/>
        <polygon class="cls-10" points="456.94 211.31 474.83 209.63 477.35 214.05 490.62 219.17 476.06 214.32 458.03 215.19 456.94 211.31"/>
        <polygon class="cls-13" points="447.54 231.36 448.99 232.49 448.62 233.23 447.54 231.36"/>
        <polygon class="cls-13" points="450.05 235.7 450.76 233.23 454.11 233.23 452.22 239.44 450.05 235.7"/>
        <polygon class="cls-2" points="397.14 401.18 402.83 408.54 423.29 421.46 403.58 399.49 397.14 401.18"/>
        <polygon class="cls-2" points="453.72 279.21 435.42 278.22 444.89 271.78 466.06 273.26 453.72 279.21"/>
        <polygon class="cls-20" points="495.83 192.56 479.79 181.87 463.2 185.07 463.1 184.58 479.9 181.34 496.11 192.15 495.83 192.56"/>
        <rect class="cls-20" x="491.66" y="152.61" width=".5" height="17.99" transform="translate(95.27 494.43) rotate(-58.19)"/>
        <rect class="cls-20" x="477.29" y="174.35" width="26.17" height=".5" transform="translate(259.45 641.1) rotate(-83.26)"/>
        <polygon class="cls-20" points="501.3 152.79 499.3 151.2 500.94 133.95 501.43 134 499.82 150.97 501.61 152.39 501.3 152.79"/>
        <rect class="cls-20" x="447.76" y="153.19" width="60.66" height=".5" transform="translate(230.66 590.35) rotate(-78.27)"/>
        <rect class="cls-20" x="468.53" y="159.64" width="8.66" height=".5" transform="translate(-25.99 142.28) rotate(-16.66)"/>
        <rect class="cls-20" x="458.29" y="196.07" width="28.11" height=".5" transform="translate(189.16 622.3) rotate(-78.95)"/>
        <rect class="cls-20" x="417.28" y="270.99" width="111.19" height=".5" transform="translate(122.73 689.06) rotate(-79.87)"/>
        <polygon class="cls-20" points="450.99 245.22 450.94 244.73 470.96 242.67 477.62 244.74 477.47 245.21 470.91 243.17 450.99 245.22"/>
        <rect class="cls-20" x="480.83" y="252.25" width=".5" height="11.85" transform="translate(60.78 606.67) rotate(-67.88)"/>
        <rect class="cls-20" x="461.12" y="276.76" width=".5" height="17.64" transform="translate(112.76 701.39) rotate(-81.78)"/>
        <rect class="cls-20" x="433.63" y="305.54" width="41.97" height=".5" transform="translate(70.51 696.49) rotate(-79.41)"/>
        <rect class="cls-20" x="427.44" y="366.98" width="45.81" height=".5" transform="translate(-36.15 49.44) rotate(-6.04)"/>
        <rect class="cls-20" x="419.7" y="337.85" width="14.76" height=".5"/>
        <polygon class="cls-20" points="408.47 404.72 407.98 404.61 423.05 338.04 423.53 338.15 408.47 404.72"/>
        <rect class="cls-20" x="410.86" y="387.49" width="12.82" height=".5" transform="translate(-14.79 16.56) rotate(-2.23)"/>
        <rect class="cls-20" x="406.05" y="308.12" width="60.99" height=".5" transform="translate(38.64 665.22) rotate(-77.12)"/>
        <rect class="cls-20" x="429.45" y="300.71" width="8.8" height=".5"/>
        <polygon class="cls-8" points="435.79 391.9 422.72 410.09 424.99 419.94 403.58 399.49 423.29 421.46 423.68 422.81 460.42 419.94 464.87 399.49 456.07 391.52 435.79 391.9"/>
        <polygon class="cls-8" points="397.14 401.18 402.83 408.54 397.14 424.47 419.7 423.06 390.7 424.88 397.14 401.18"/>
        <polygon class="cls-19" points="436.55 328.49 424.42 384.07 430.49 382.69 443.36 337.21 445.14 337.21 438.25 374.66 440.97 374.66 449.44 333.67 463.15 331.48 457.68 369.66 473.37 366.01 479.81 325.97 436.55 328.49"/>
        <polygon class="cls-19" points="488.66 264.25 471.27 258.93 461.94 305.39 469.17 305.39 477.54 271.78 481.08 271.78 478.05 284.32 486.57 284.32 487.64 276.7 488.66 264.25"/>
        <polygon class="cls-19" points="490.62 121.41 476.54 200.03 480.7 203.38 490.62 142.09 491.91 144.31 484.27 196.32 488.83 200.03 495.97 144.31 497.47 145.31 495.97 156.87 500.51 159.47 503.63 136.88 490.62 121.41"/>
        <polygon class="cls-19" points="488.83 244.97 480.13 242.22 484.48 217.13 492.2 219.66 488.83 244.97"/>
        <polygon class="cls-16" points="474.83 209.63 490.62 121.41 480.21 125.24 468.71 175.53 471.32 174.6 479.66 134.6 484.27 133.97 471.92 209.91 474.83 209.63"/>
        <polygon class="cls-16" points="476.06 214.32 466.06 273.26 450.74 272.19 458.49 231.61 460.42 231.61 454.11 269.13 456.94 269 465.1 216.5 463.4 216.5 460.93 229.59 459.29 229.53 461.25 215.04 476.06 214.32"/>
        <polygon class="cls-16" points="453.72 279.21 443.75 326.54 440.15 326.54 447.16 289.12 442.62 289.02 427.57 362.1 422.72 363.04 439.58 278.65 453.72 279.21"/>
        <polygon class="cls-16" points="420.26 403.14 427.19 371.38 419.7 371.38 413.53 403.14 420.26 403.14"/>
        <polygon class="cls-17" points="443.88 386.03 447.16 371.38 455.63 371.38 453.72 378.9 443.88 386.03"/>
        <polygon class="cls-17" points="415.6 353.71 419.76 353.71 413.11 383.07 407.12 386.03 415.6 353.71"/>
        <polygon class="cls-12" points="410.87 403.91 415.05 395.32 411.48 405.04 410.87 403.91"/>
        <polygon class="cls-12" points="423.81 370.59 425.23 364.81 424.52 369.17 423.81 370.59"/>
        <polygon class="cls-12" points="431.77 312.33 431.62 307.06 430.87 308.37 431.77 312.33"/>
        <polygon class="cls-12" points="428.47 323.76 429.51 322.59 428.47 328.05 428.47 323.76"/>
        <polygon class="cls-7" points="487.47 288.98 496.05 295.46 488.01 279.21 487.47 288.98"/>
        <polygon class="cls-11" points="460.59 210.96 463.88 214.91 470.22 214.6 467.29 210.34 460.59 210.96"/>
        <polygon class="cls-11" points="475.63 211.34 473.47 214.4 476.06 214.32 477.83 214.91 478.69 214.57 477.35 214.05 475.63 211.34"/>
      </g>
      <g>
        <polygon class="cls-14" points="603.92 331.65 582.45 336.08 574.81 341.48 575.63 378.01 580.11 391.52 594.01 401.18 584.28 409.91 536.22 409.91 536.22 343.97 563.12 294.71 599.69 318.96 603.92 331.65"/>
        <polygon class="cls-13" points="544.57 359.33 574.81 341.48 575.63 378.01 580.11 391.52 594.01 401.18 584.28 409.91 537.99 408.7 544.57 359.33"/>
        <path class="cls-4" d="M655.77,410.09l-21.41-3.6-5.31-12.5-10.61-2.09-5.23,1.28-.7-6.33-5.06-48.76,2.03-2.27-9.6-103.33h3.03l-3.79-40.17,2.78-2.78,.5-23.24-.5-6.06-5.56-16.67-6.06-3.79-1.77-25.77-3.92-8.97h-1.39l-5.63-5.43-.81-4.3-3.79-7.07-10.3,3.72-.88,22.05-14.59,4.55-.76-7.08-10.73,6.7-1.77,30.82-2.15,3.28-1.64,45.98-1.9,27.16,3.04,4.55-1.9,18.94,.63,5.18-2.27,32.21-3.16,30.57-5.05,1.26-7.08,15.54,.38,2.02,6.95,8.47-4.67,6.82-5.06,22.23-12.25,14.15-3.53,12.12-3.16,4.55-30.7,15.91h117.15l8.85-1.32,76.74-2.84-7.39-5.69Zm-69.66-5.68l-2.28-1.27-11.49,1.27-5.56-3.24v3.41l-13.01,4.12-13.01-2.9,3.46-42.25-1.06-8.66,2.15-6.76,10.99-12.43,7.7-2.28,.68,16.43,4.5,4.41,2.65-28.29,13.71-3.84,5.45,2.32,2.32,42.82,3.15,4.42,1.14,26.78-11.49,5.94Zm24-16.93l-2.78-3.41-3.29,7.45-.56,4.42-2.72,1.65-3.16-47.18,2.57-21.92,3.75,3.16,3.53,36.88,2.66,4.17v14.78Z"/>
        <polygon class="cls-10" points="546.44 111.48 553.77 116.52 547.2 118.56 546.44 111.48"/>
        <polygon class="cls-6" points="572.97 88.24 573.24 217.53 577.57 219.71 576.85 303.81 579.16 299.91 580.12 247.72 585.01 243.4 586.09 244.35 586.62 321.04 596.22 326.16 600.76 397.59 597.6 350.41 600.45 326.16 609.48 335.82 600.06 234.42 602.91 232.49 599.12 192.32 591.23 163.53 591.23 140.38 590.28 139.78 588.51 114.01 584.59 105.04 583.2 105.04 577.57 99.61 576.76 95.31 572.97 88.24"/>
        <polygon class="cls-6" points="596.34 143.57 592.77 156.01 592.77 163.78 599.03 188.41 601.9 189.54 602.4 166.3 601.9 160.24 596.34 143.57"/>
        <polygon class="cls-20" points="587.17 111.21 573.87 100.92 562.1 108.18 561.96 107.97 573.89 100.61 573.96 100.67 587.32 111.02 587.17 111.21"/>
        <g>
          <rect class="cls-20" x="533.54" y="146.04" width="18.62" height=".5" transform="translate(-19.08 164.22) rotate(-16.91)"/>
          <polygon class="cls-20" points="530.26 196.99 530.15 196.5 567.92 187.83 567.92 124.76 572.94 120.24 573.1 120.34 589.79 130.5 589.53 130.92 573 120.86 568.42 124.99 568.42 188.23 530.26 196.99"/>
          <rect class="cls-20" x="567.92" y="165.17" width="5.31" height=".5" transform="translate(-15.96 259.77) rotate(-25.31)"/>
          <polygon class="cls-20" points="568.31 176.49 568.03 176.08 573.18 172.62 594.46 174.98 594.41 175.48 573.31 173.13 568.31 176.49"/>
          <rect class="cls-20" x="549.08" y="144.31" width=".5" height="48.04"/>
          <rect class="cls-20" x="551.5" y="137.89" width=".5" height="8.4"/>
          <rect class="cls-20" x="534.72" y="121.16" width="13.13" height=".5" transform="translate(.93 246.87) rotate(-25.71)"/>
          <rect class="cls-20" x="527.57" y="212.38" width="46.5" height=".5" transform="translate(-38.52 176.74) rotate(-17.62)"/>
          <rect class="cls-20" x="567.92" y="207.12" width=".5" height="12.05"/>
          <rect class="cls-20" x="529.96" y="233.09" width="41.84" height=".5" transform="translate(-38.13 128.52) rotate(-12.87)"/>
          <polygon class="cls-20" points="530.07 254.34 529.98 253.85 567.32 247.13 567.32 242.76 571.02 241.11 571.02 220.49 571.52 220.49 571.52 241.44 567.82 243.08 567.82 247.55 530.07 254.34"/>
          <polygon class="cls-20" points="572.08 325.98 571.58 325.96 575.38 229.56 577.46 228.45 577.69 228.9 575.87 229.87 572.08 325.98"/>
          <rect class="cls-20" x="528" y="276.89" width="17.03" height=".5" transform="translate(-51.2 138.4) rotate(-14.04)"/>
          <rect class="cls-20" x="497.83" y="297.5" width="92.84" height=".5" transform="translate(233.85 834.89) rotate(-88.66)"/>
          <rect class="cls-20" x="543.61" y="303.22" width="29.68" height=".5" transform="translate(-56.47 142.75) rotate(-13.87)"/>
          <rect class="cls-20" x="543.85" y="294.73" width="29.8" height=".5" transform="translate(-55.15 145.5) rotate(-14.15)"/>
          <polygon class="cls-20" points="580.89 277.96 580.66 277.51 586.19 274.71 586.41 275.16 580.89 277.96"/>
          <rect class="cls-20" x="596.53" y="293.73" width=".5" height="21.91" transform="translate(107.23 762.2) rotate(-70.11)"/>
          <rect class="cls-20" x="550.4" y="297.02" width=".5" height="8.37"/>
          <polygon class="cls-20" points="564.25 333.44 563.75 333.41 564.11 328.33 571.72 324.61 571.94 325.06 564.59 328.66 564.25 333.44"/>
          <rect class="cls-20" x="543" y="331.23" width="21.77" height=".5" transform="translate(-69.56 164.21) rotate(-15.88)"/>
          <rect class="cls-20" x="538.87" y="227.2" width=".5" height="8.84"/>
        </g>
        <polygon class="cls-6" points="519.54 318.13 526.36 324.83 528.25 322.13 524.59 316.87 519.54 318.13"/>
        <polygon class="cls-9" points="512.46 333.67 513.98 336.7 520.3 341.13 519.79 344.16 512.84 335.69 512.46 333.67"/>
        <polygon class="cls-8" points="515.12 350.98 522.32 354.01 530.28 355.15 530.28 367.28 510.06 373.21 515.12 350.98"/>
        <polygon class="cls-8" points="497.81 387.36 518.28 381.55 531.42 373.21 539.63 399.49 535.46 401.18 514.99 411.11 546.8 409.91 559.08 412.24 510.06 418.62 552.42 418.62 569.18 417.8 572.97 419.94 460.42 419.94 498.45 417.04 516.7 413.25 494.28 399.48 497.81 387.36"/>
        <polygon class="cls-8" points="629.05 393.99 606.95 399.49 585.62 408.7 634.36 406.49 629.05 393.99"/>
        <polygon class="cls-8" points="655.77 410.09 647.25 412.88 586.42 418.62 663.16 415.78 655.77 410.09"/>
        <polygon class="cls-2" points="544.23 363.55 540.76 363.04 531.42 373.21 539.63 399.49 541.28 399.49 544.23 363.55"/>
        <polygon class="cls-6" points="569.18 354.26 567.92 347.7 567.86 329.57 571.69 327.49 569.18 354.26"/>
        <polygon class="cls-8" points="567.92 347.7 564.68 349.86 569.18 354.26 567.92 347.7"/>
        <polygon class="cls-6" points="607.33 384.07 610.11 387.48 610.11 391.9 606.23 390.68 607.33 384.07"/>
        <polygon class="cls-2" points="515.12 350.98 522.32 354.01 530.28 355.15 530.02 346.43 524.72 338.92 519.79 344.16 515.12 350.98"/>
        <polygon class="cls-2" points="543.16 354.89 539.44 355.05 539.06 347.7 545.31 348.13 543.16 354.89"/>
        <polygon class="cls-6" points="539.44 355.05 540.76 363.04 544.23 363.55 543.16 354.89 539.44 355.05"/>
        <polygon class="cls-6" points="580.11 391.52 561.79 396.58 573.61 399.49 593.31 400.69 580.11 391.52"/>
        <polygon class="cls-6" points="566.78 401.18 568.3 404.48 576.13 407.06 572.34 404.41 566.78 401.18"/>
        <polygon class="cls-6" points="583.83 403.14 581.69 404.12 580.11 406.18 586.11 404.41 583.83 403.14"/>
        <polygon class="cls-6" points="634.36 406.49 602.15 407.95 593.31 417.97 647.25 412.88 654.66 409.91 634.36 406.49"/>
        <polygon class="cls-6" points="629.05 393.99 606.95 399.49 603.48 395.94 618.44 391.9 629.05 393.99"/>
        <polygon class="cls-2" points="561.79 393.99 571.46 378.83 575.63 378.01 580.11 391.52 561.79 393.99"/>
        <polygon class="cls-13" points="603.92 331.65 605.56 334.46 607.39 367.87 602.15 332.02 603.92 331.65"/>
        <polygon class="cls-13" points="608.17 369.66 610.11 387.48 610.11 372.7 608.17 369.66"/>
        <polygon class="cls-19" points="586.3 223.84 586.59 316.87 592.77 322.13 589.54 245.13 592.77 247.15 597.6 287.82 605.35 291.34 599.88 232.49 586.3 223.84"/>
        <polygon class="cls-19" points="582.19 215.19 576.06 130.71 580.11 132.2 583.54 202.95 589.34 205.46 589.34 187.28 599.12 192.32 602.91 232.49 582.19 215.19"/>
        <polygon class="cls-19" points="577.57 99.61 583.53 164.99 589.49 168.33 583.2 105.04 577.57 99.61"/>
        <polygon class="cls-19" points="605.99 302.6 594.45 299.91 594.45 302.6 606.66 305.39 605.99 302.6"/>
        <polygon class="cls-18" points="533.85 228.3 531.42 320.85 537.82 318.86 539.44 246.9 544.04 244.88 542.85 294.71 559.77 291.34 560.37 221.38 533.85 228.3"/>
        <polygon class="cls-16" points="563.44 224.03 561.63 330.38 566.93 327.49 569.77 254.09 572.97 251.34 574.7 325.17 576.06 324.83 577.56 221.38 563.44 224.03"/>
        <polygon class="cls-16" points="572.97 88.24 573.24 217.53 551.75 223.15 554.98 146.29 558.19 142.09 560.37 215.19 569.98 212.48 565.58 136.5 560.37 137.89 561.79 114.01 562.67 91.96 572.97 88.24"/>
        <polygon class="cls-18" points="533.94 211.31 535.71 118.18 546.44 111.48 542.85 208.3 533.94 211.31"/>
        <polygon class="cls-13" points="590.99 324.45 596.22 326.16 586.3 319.78 572.53 324.83 571.69 326.54 584.27 322.9 590.99 324.45"/>
        <polygon class="cls-13" points="545.31 348.13 539.06 347.7 553.89 334.46 564 329.13 564.1 335.76 556.55 336.26 545.31 348.13"/>
        <polygon class="cls-2" points="514.5 353.71 521.73 357.36 528.95 366.71 519.48 360.21 514.5 353.71"/>
        <polygon class="cls-10" points="602.91 232.49 573.2 208.98 558.45 217.2 533.09 227.25 528.25 225.42 531.29 229.97 533.85 228.3 577.56 221.38 599.88 232.49 602.91 232.49"/>
        <polygon class="cls-10" points="596.34 143.57 592.77 156.01 592.77 163.78 599.03 188.41 601.9 189.54 599.12 192.32 591.23 163.53 591.23 140.38 596.34 143.57"/>
        <polygon class="cls-17" points="543.93 311.95 555.64 308.41 553.89 327.49 543.42 329.13 543.93 311.95"/>
        <polygon class="cls-15" points="528.25 322.13 528.95 335.95 528.6 341.48 524.72 338.92 530.02 346.43 530.28 367.28 531.42 305.39 526.21 301.21 524.59 316.87 528.25 322.13"/>
        <polygon class="cls-17" points="531.42 218.79 531.42 223.15 549.86 218.79 550.82 212.63 531.42 218.79"/>
        <polygon class="cls-3" points="579.87 261.17 577.22 261.17 577 286.84 579.42 285.8 579.87 261.17"/>
        <polygon class="cls-12" points="557.63 323.16 557.91 319.78 558.45 319.34 558.04 323.16 557.63 323.16"/>
        <polygon class="cls-12" points="558.75 325.97 559.21 324.83 559.95 324.31 559.95 326.54 558.75 325.97"/>
        <polygon class="cls-12" points="536.51 352.31 534.83 348.13 536.22 343.97 536.51 352.31"/>
        <polygon class="cls-12" points="548.34 206.41 547.49 201.77 548.34 200.35 549.33 206.41 548.34 206.41"/>
        <polygon class="cls-12" points="561.63 166.56 563.5 155.69 564.26 155.69 561.63 166.56"/>
        <polygon class="cls-11" points="577.56 221.38 580.73 214.94 590.95 223.03 586.88 226.02 577.56 221.38"/>
        <polygon class="cls-11" points="590.95 228.05 594.56 225.88 600.37 230.37 596.71 230.91 590.95 228.05"/>
        <polygon class="cls-11" points="542.4 226.94 540.19 224.44 545.89 222.18 547.93 226.07 542.4 226.94"/>
        <polygon class="cls-11" points="599.03 188.41 598.36 189.54 591.23 163.53 592.77 163.78 599.03 188.41"/>
        <polygon class="cls-11" points="591.23 149 594.35 150.51 595.39 146.9 591.23 144.29 591.23 149"/>
      </g>
    </g>
  </g>
</svg>