<?xml version="1.0" encoding="UTF-8"?>
<svg xmlns="http://www.w3.org/2000/svg" xmlns:xlink="http://www.w3.org/1999/xlink" viewBox="0 0 1800.45 523.78">
  <defs>
    <style>
      .cls-1 {
        fill: none;
      }

      .cls-2 {
        fill: url(#_ÂÁ_Ï_ÌÌ_È_ËÂÌÚ_84-7);
      }

      .cls-2, .cls-3, .cls-4, .cls-5, .cls-6, .cls-7, .cls-8, .cls-9, .cls-10, .cls-11, .cls-12, .cls-13, .cls-14, .cls-15, .cls-16, .cls-17, .cls-18, .cls-19, .cls-20, .cls-21, .cls-22, .cls-23, .cls-24, .cls-25, .cls-26, .cls-27, .cls-28, .cls-29, .cls-30 {
        fill-rule: evenodd;
      }

      .cls-3 {
        fill: url(#_ÂÁ_Ï_ÌÌ_È_ËÂÌÚ_84-8);
      }

      .cls-4 {
        fill: url(#_ÂÁ_Ï_ÌÌ_È_ËÂÌÚ_84-6);
      }

      .cls-5 {
        fill: url(#_ÂÁ_Ï_ÌÌ_È_ËÂÌÚ_84-5);
      }

      .cls-6 {
        fill: url(#_ÂÁ_Ï_ÌÌ_È_ËÂÌÚ_84-9);
      }

      .cls-7 {
        fill: url(#_ÂÁ_Ï_ÌÌ_È_ËÂÌÚ_84-2);
      }

      .cls-8 {
        fill: url(#_ÂÁ_Ï_ÌÌ_È_ËÂÌÚ_84-3);
      }

      .cls-9 {
        fill: url(#_ÂÁ_Ï_ÌÌ_È_ËÂÌÚ_84-4);
      }

      .cls-10 {
        fill: url(#_ÂÁ_Ï_ÌÌ_È_ËÂÌÚ_84);
      }

      .cls-31 {
        clip-path: url(#clippath);
      }

      .cls-32 {
        fill: #230d32;
      }

      .cls-33 {
        fill: #471737;
      }

      .cls-11 {
        fill: url(#_ÂÁ_Ï_ÌÌ_È_ËÂÌÚ_131);
      }

      .cls-12 {
        fill: #95d3ff;
      }

      .cls-12, .cls-13, .cls-30 {
        mix-blend-mode: soft-light;
      }

      .cls-13 {
        fill: #ecaba4;
      }

      .cls-14 {
        fill: url(#_ÂÁ_Ï_ÌÌ_È_ËÂÌÚ_84-20);
      }

      .cls-15 {
        fill: url(#_ÂÁ_Ï_ÌÌ_È_ËÂÌÚ_84-10);
      }

      .cls-16 {
        fill: url(#_ÂÁ_Ï_ÌÌ_È_ËÂÌÚ_84-15);
      }

      .cls-17 {
        fill: url(#_ÂÁ_Ï_ÌÌ_È_ËÂÌÚ_84-14);
      }

      .cls-18 {
        fill: url(#_ÂÁ_Ï_ÌÌ_È_ËÂÌÚ_84-16);
      }

      .cls-19 {
        fill: url(#_ÂÁ_Ï_ÌÌ_È_ËÂÌÚ_84-11);
      }

      .cls-20 {
        fill: url(#_ÂÁ_Ï_ÌÌ_È_ËÂÌÚ_84-12);
      }

      .cls-21 {
        fill: url(#_ÂÁ_Ï_ÌÌ_È_ËÂÌÚ_84-18);
      }

      .cls-22 {
        fill: url(#_ÂÁ_Ï_ÌÌ_È_ËÂÌÚ_84-13);
      }

      .cls-23 {
        fill: url(#_ÂÁ_Ï_ÌÌ_È_ËÂÌÚ_84-17);
      }

      .cls-24 {
        fill: url(#_ÂÁ_Ï_ÌÌ_È_ËÂÌÚ_84-19);
      }

      .cls-25 {
        fill: url(#_ÂÁ_Ï_ÌÌ_È_ËÂÌÚ_131-2);
      }

      .cls-26 {
        fill: url(#_ÂÁ_Ï_ÌÌ_È_ËÂÌÚ_131-3);
      }

      .cls-27 {
        fill: #479cf2;
      }

      .cls-28 {
        fill: #290823;
      }

      .cls-29 {
        fill: #430f3f;
      }

      .cls-34 {
        isolation: isolate;
      }

      .cls-30 {
        fill: #ecdedd;
        opacity: .2;
      }
    </style>
    <clipPath id="clippath">
      <rect class="cls-1" x="77.57" y="64.25" width="1000" height="400"/>
    </clipPath>
    <linearGradient id="_ÂÁ_Ï_ÌÌ_È_ËÂÌÚ_131" data-name="¡ÂÁ˚ÏˇÌÌ˚È „‡‰ËÂÌÚ 131" x1="742.29" y1="433.74" x2="742.29" y2="413.57" gradientTransform="translate(525.48 -678.73) rotate(51.91)" gradientUnits="userSpaceOnUse">
      <stop offset="0" stop-color="#3b1b36"/>
      <stop offset="1" stop-color="#311134"/>
    </linearGradient>
    <linearGradient id="_ÂÁ_Ï_ÌÌ_È_ËÂÌÚ_84" data-name="¡ÂÁ˚ÏˇÌÌ˚È „‡‰ËÂÌÚ 84" x1="728.15" y1="272.3" x2="728.15" y2="256.43" gradientUnits="userSpaceOnUse">
      <stop offset="0" stop-color="#5c214a"/>
      <stop offset="1" stop-color="#4f1d4f"/>
    </linearGradient>
    <linearGradient id="_ÂÁ_Ï_ÌÌ_È_ËÂÌÚ_84-2" data-name="¡ÂÁ˚ÏˇÌÌ˚È „‡‰ËÂÌÚ 84" x1="403.98" y1="284.54" x2="414.38" y2="284.54" xlink:href="#_ÂÁ_Ï_ÌÌ_È_ËÂÌÚ_84"/>
    <linearGradient id="_ÂÁ_Ï_ÌÌ_È_ËÂÌÚ_84-3" data-name="¡ÂÁ˚ÏˇÌÌ˚È „‡‰ËÂÌÚ 84" x1="418.51" y1="274.48" x2="428.99" y2="274.48" xlink:href="#_ÂÁ_Ï_ÌÌ_È_ËÂÌÚ_84"/>
    <linearGradient id="_ÂÁ_Ï_ÌÌ_È_ËÂÌÚ_84-4" data-name="¡ÂÁ˚ÏˇÌÌ˚È „‡‰ËÂÌÚ 84" x1="401.76" y1="211.36" x2="411.03" y2="211.36" xlink:href="#_ÂÁ_Ï_ÌÌ_È_ËÂÌÚ_84"/>
    <linearGradient id="_ÂÁ_Ï_ÌÌ_È_ËÂÌÚ_84-5" data-name="¡ÂÁ˚ÏˇÌÌ˚È „‡‰ËÂÌÚ 84" x1="377.64" y1="223.66" x2="394.09" y2="223.66" xlink:href="#_ÂÁ_Ï_ÌÌ_È_ËÂÌÚ_84"/>
    <linearGradient id="_ÂÁ_Ï_ÌÌ_È_ËÂÌÚ_84-6" data-name="¡ÂÁ˚ÏˇÌÌ˚È „‡‰ËÂÌÚ 84" x1="335.13" y1="273.48" x2="342.64" y2="273.48" xlink:href="#_ÂÁ_Ï_ÌÌ_È_ËÂÌÚ_84"/>
    <linearGradient id="_ÂÁ_Ï_ÌÌ_È_ËÂÌÚ_84-7" data-name="¡ÂÁ˚ÏˇÌÌ˚È „‡‰ËÂÌÚ 84" x1="170.21" y1="223.27" x2="203.4" y2="223.27" xlink:href="#_ÂÁ_Ï_ÌÌ_È_ËÂÌÚ_84"/>
    <linearGradient id="_ÂÁ_Ï_ÌÌ_È_ËÂÌÚ_84-8" data-name="¡ÂÁ˚ÏˇÌÌ˚È „‡‰ËÂÌÚ 84" x1="187.05" y1="241.24" x2="196.27" y2="241.24" xlink:href="#_ÂÁ_Ï_ÌÌ_È_ËÂÌÚ_84"/>
    <linearGradient id="_ÂÁ_Ï_ÌÌ_È_ËÂÌÚ_84-9" data-name="¡ÂÁ˚ÏˇÌÌ˚È „‡‰ËÂÌÚ 84" x1="822.52" y1="145.82" x2="869.98" y2="145.82" xlink:href="#_ÂÁ_Ï_ÌÌ_È_ËÂÌÚ_84"/>
    <linearGradient id="_ÂÁ_Ï_ÌÌ_È_ËÂÌÚ_84-10" data-name="¡ÂÁ˚ÏˇÌÌ˚È „‡‰ËÂÌÚ 84" x1="873.49" y1="118.08" x2="889" y2="118.08" xlink:href="#_ÂÁ_Ï_ÌÌ_È_ËÂÌÚ_84"/>
    <linearGradient id="_ÂÁ_Ï_ÌÌ_È_ËÂÌÚ_84-11" data-name="¡ÂÁ˚ÏˇÌÌ˚È „‡‰ËÂÌÚ 84" x1="604.34" y1="237.57" x2="613.53" y2="237.57" xlink:href="#_ÂÁ_Ï_ÌÌ_È_ËÂÌÚ_84"/>
    <linearGradient id="_ÂÁ_Ï_ÌÌ_È_ËÂÌÚ_84-12" data-name="¡ÂÁ˚ÏˇÌÌ˚È „‡‰ËÂÌÚ 84" x1="608.48" y1="214.94" x2="614.77" y2="214.94" xlink:href="#_ÂÁ_Ï_ÌÌ_È_ËÂÌÚ_84"/>
    <linearGradient id="_ÂÁ_Ï_ÌÌ_È_ËÂÌÚ_84-13" data-name="¡ÂÁ˚ÏˇÌÌ˚È „‡‰ËÂÌÚ 84" x1="506.87" y1="227.93" x2="520.98" y2="227.93" xlink:href="#_ÂÁ_Ï_ÌÌ_È_ËÂÌÚ_84"/>
    <linearGradient id="_ÂÁ_Ï_ÌÌ_È_ËÂÌÚ_84-14" data-name="¡ÂÁ˚ÏˇÌÌ˚È „‡‰ËÂÌÚ 84" x1="497.25" y1="238.12" x2="503.77" y2="238.12" xlink:href="#_ÂÁ_Ï_ÌÌ_È_ËÂÌÚ_84"/>
    <linearGradient id="_ÂÁ_Ï_ÌÌ_È_ËÂÌÚ_84-15" data-name="¡ÂÁ˚ÏˇÌÌ˚È „‡‰ËÂÌÚ 84" x1="669.63" y1="244.56" x2="682.49" y2="244.56" xlink:href="#_ÂÁ_Ï_ÌÌ_È_ËÂÌÚ_84"/>
    <linearGradient id="_ÂÁ_Ï_ÌÌ_È_ËÂÌÚ_84-16" data-name="¡ÂÁ˚ÏˇÌÌ˚È „‡‰ËÂÌÚ 84" x1="499.5" y1="202.27" x2="515.18" y2="202.27" xlink:href="#_ÂÁ_Ï_ÌÌ_È_ËÂÌÚ_84"/>
    <linearGradient id="_ÂÁ_Ï_ÌÌ_È_ËÂÌÚ_84-17" data-name="¡ÂÁ˚ÏˇÌÌ˚È „‡‰ËÂÌÚ 84" x1="389.41" y1="180.84" x2="426.4" y2="180.84" xlink:href="#_ÂÁ_Ï_ÌÌ_È_ËÂÌÚ_84"/>
    <linearGradient id="_ÂÁ_Ï_ÌÌ_È_ËÂÌÚ_84-18" data-name="¡ÂÁ˚ÏˇÌÌ˚È „‡‰ËÂÌÚ 84" x1="817.65" y1="192.33" x2="828.06" y2="192.33" xlink:href="#_ÂÁ_Ï_ÌÌ_È_ËÂÌÚ_84"/>
    <linearGradient id="_ÂÁ_Ï_ÌÌ_È_ËÂÌÚ_84-19" data-name="¡ÂÁ˚ÏˇÌÌ˚È „‡‰ËÂÌÚ 84" x1="832.19" y1="182.27" x2="842.67" y2="182.27" xlink:href="#_ÂÁ_Ï_ÌÌ_È_ËÂÌÚ_84"/>
    <linearGradient id="_ÂÁ_Ï_ÌÌ_È_ËÂÌÚ_84-20" data-name="¡ÂÁ˚ÏˇÌÌ˚È „‡‰ËÂÌÚ 84" x1="273.5" y1="309" x2="273.5" y2="274.96" xlink:href="#_ÂÁ_Ï_ÌÌ_È_ËÂÌÚ_84"/>
    <linearGradient id="_ÂÁ_Ï_ÌÌ_È_ËÂÌÚ_131-2" data-name="¡ÂÁ˚ÏˇÌÌ˚È „‡‰ËÂÌÚ 131" x1="337.4" y1="258.93" x2="337.4" y2="212.48" gradientTransform="matrix(1, 0, 0, 1, 0, 0)" xlink:href="#_ÂÁ_Ï_ÌÌ_È_ËÂÌÚ_131"/>
    <linearGradient id="_ÂÁ_Ï_ÌÌ_È_ËÂÌÚ_131-3" data-name="¡ÂÁ˚ÏˇÌÌ˚È „‡‰ËÂÌÚ 131" x1="675.98" y1="215.19" x2="675.98" y2="184.88" gradientTransform="matrix(1, 0, 0, 1, 0, 0)" xlink:href="#_ÂÁ_Ï_ÌÌ_È_ËÂÌÚ_131"/>
  </defs>
  <g class="cls-34">
    <g id="floating_rocks" data-name="floating rocks">
      <g class="cls-31">
        <g>
          <polygon class="cls-11" points="651.3 158.42 643.36 166.27 643.17 167.49 644.48 176.26 647.13 176.47 656.01 167.7 656.54 158.95 651.3 158.42"/>
          <polygon class="cls-10" points="723.38 269.63 721.12 259.54 722.35 257.46 728.8 256.43 735.18 268.06 730.3 272.3 723.38 269.63"/>
          <polygon class="cls-7" points="410.82 291.34 414.38 279.74 412.38 277.73 404.35 280.37 403.98 286.85 410.82 291.34"/>
          <polygon class="cls-8" points="418.51 276.75 420.89 274.28 428.2 271.24 428.99 274.94 424.42 277.73 418.51 276.75"/>
          <polygon class="cls-9" points="401.76 211.17 404.29 205.45 408.9 203.94 411.03 211.17 406.1 218.79 401.76 211.17"/>
          <polygon class="cls-5" points="394.09 214.4 392.33 211.33 384.94 212.48 377.64 224.23 380.19 235.99 390.34 233.66 392.33 227.44 394.09 214.4"/>
          <polygon class="cls-4" points="335.13 273.92 338.93 269.22 342.16 269.89 342.64 275.49 336.14 277.73 335.13 273.92"/>
          <polygon class="cls-2" points="180.13 237.29 203.4 224.92 203.4 219.58 201.2 209.26 170.21 215.32 170.95 235.29 180.13 237.29"/>
          <polygon class="cls-3" points="187.05 240.32 191.3 235.84 196.27 237.11 195.39 245.34 187.67 246.64 187.05 240.32"/>
          <polygon class="cls-6" points="835.61 165.91 822.52 139.25 833.16 124.91 869.98 136.46 860.32 166.72 835.61 165.91"/>
          <polygon class="cls-15" points="876.13 121.78 873.49 114.53 877.94 110.7 889 116.03 885.74 125.45 876.13 121.78"/>
          <polygon class="cls-19" points="604.34 237.29 606.7 232.93 612.21 232.37 613.53 237.29 608.93 242.76 604.34 237.29"/>
          <polygon class="cls-20" points="609.06 217.41 608.48 214.85 613.12 212.47 614.77 214.9 614.41 216.61 609.06 217.41"/>
          <polygon class="cls-22" points="520.98 226.9 515.94 224.24 506.87 227.08 508.33 231.61 517.78 231.62 520.98 226.9"/>
          <polygon class="cls-17" points="497.25 239.19 498.47 237.36 503.77 236.35 503.32 238.95 499.48 239.88 497.25 239.19"/>
          <polygon class="cls-16" points="669.63 247.52 669.63 238.84 673.81 237.67 682.49 248.33 677.94 251.46 669.63 247.52"/>
          <polygon class="cls-18" points="515.18 197.76 503.14 197.09 499.5 200.77 503.63 207.44 512.62 206.73 515.18 197.76"/>
          <polygon class="cls-28" points="835.61 165.91 857.54 141.56 869.98 136.46 860.32 166.72 835.61 165.91"/>
          <polygon class="cls-13" points="833.16 124.91 834.3 130.38 857.54 141.56 869.98 136.46 833.16 124.91"/>
          <polygon class="cls-29" points="850.84 149 854.05 139.87 861.11 140.1 850.84 149"/>
          <polygon class="cls-23" points="399.62 196.5 389.41 175.72 397.71 164.55 426.4 173.55 418.87 197.13 399.62 196.5"/>
          <polygon class="cls-28" points="399.62 196.5 416.71 177.52 426.4 173.55 418.87 197.13 399.62 196.5"/>
          <polygon class="cls-13" points="397.71 164.55 398.59 168.81 416.71 177.52 426.4 173.55 397.71 164.55"/>
          <polygon class="cls-29" points="411.49 183.32 413.99 176.21 419.49 176.38 411.49 183.32"/>
          <polygon class="cls-28" points="885.74 125.45 876.13 121.78 884.74 117.57 889 116.03 885.74 125.45"/>
          <polygon class="cls-13" points="877.94 110.7 876.72 112.16 883.59 118.13 889 116.03 877.94 110.7"/>
          <polygon class="cls-29" points="880.76 119.51 881.83 116.59 886.38 117.05 880.76 119.51"/>
          <polygon class="cls-13" points="651.3 158.42 652.57 166.14 656.01 167.7 656.54 158.95 651.3 158.42"/>
          <polygon class="cls-13" points="669.63 238.84 676.45 249.29 682.49 248.33 673.81 237.67 669.63 238.84"/>
          <polygon class="cls-13" points="722.35 257.46 724.32 266.26 728.15 268.06 735.18 268.06 728.8 256.43 722.35 257.46"/>
          <polygon class="cls-13" points="606.7 232.93 606.7 235.94 609.48 238.01 613.53 237.29 612.21 232.37 606.7 232.93"/>
          <polygon class="cls-13" points="613.12 212.47 610.62 214.53 610.62 216.05 614.41 216.61 614.77 214.9 613.12 212.47"/>
          <polygon class="cls-12" points="503.14 197.09 504.67 205.68 512.62 206.73 515.18 197.76 503.14 197.09"/>
          <polygon class="cls-12" points="515.94 224.24 511.73 227.2 512.42 229.39 517.78 231.62 520.98 226.9 515.94 224.24"/>
          <polygon class="cls-12" points="498.47 237.36 498.47 238.43 499.34 239 503.32 238.95 503.77 236.35 498.47 237.36"/>
          <polygon class="cls-13" points="420.89 274.28 424.21 277.02 428.99 274.94 428.2 271.24 420.89 274.28"/>
          <polygon class="cls-13" points="412.38 277.73 406.3 283.84 407.63 287.38 410.82 291.34 414.38 279.74 412.38 277.73"/>
          <polygon class="cls-13" points="408.9 203.94 405.99 208.31 404.85 211.97 406.1 218.79 411.03 211.17 408.9 203.94"/>
          <polygon class="cls-13" points="392.33 211.33 384.73 216.48 379.95 225.98 383.9 231.11 390.34 233.66 392.33 227.44 394.09 214.4 392.33 211.33"/>
          <polygon class="cls-13" points="201.2 209.26 189.21 213.96 183 232.39 203.4 224.92 203.4 219.58 201.2 209.26"/>
          <polygon class="cls-13" points="191.3 235.84 191.85 242.35 195.39 245.34 196.27 237.11 191.3 235.84"/>
          <polygon class="cls-13" points="338.93 269.22 338.93 273.92 342.64 275.49 342.16 269.89 338.93 269.22"/>
          <polygon class="cls-28" points="676.45 249.29 669.63 247.52 677.94 251.46 682.49 248.33 676.45 249.29"/>
          <polygon class="cls-28" points="728.15 268.06 723.38 269.63 730.3 272.3 735.18 268.06 728.15 268.06"/>
          <polygon class="cls-28" points="644.48 176.26 648.01 169.04 652.57 166.14 656.01 167.7 647.13 176.47 644.48 176.26"/>
          <polygon class="cls-28" points="610.62 216.05 609.06 217.41 614.41 216.61 610.62 216.05"/>
          <polygon class="cls-28" points="609.48 238.01 608.93 242.76 613.53 237.29 609.48 238.01"/>
          <polygon class="cls-28" points="512.42 229.39 508.33 231.61 517.78 231.62 512.42 229.39"/>
          <polygon class="cls-28" points="504.67 205.68 503.63 207.44 512.62 206.73 504.67 205.68"/>
          <polygon class="cls-28" points="499.34 239 499.48 239.88 503.32 238.95 499.34 239"/>
          <polygon class="cls-28" points="404.85 211.97 401.76 211.17 406.1 218.79 404.85 211.97"/>
          <polygon class="cls-28" points="379.95 225.98 377.64 224.23 380.19 235.99 390.34 233.66 383.9 231.11 379.95 225.98"/>
          <polygon class="cls-28" points="407.63 287.38 403.98 286.85 410.82 291.34 407.63 287.38"/>
          <polygon class="cls-28" points="424.21 277.02 424.42 277.73 428.99 274.94 424.21 277.02"/>
          <polygon class="cls-21" points="824.5 199.13 828.06 187.53 826.06 185.52 818.03 188.16 817.65 194.64 824.5 199.13"/>
          <polygon class="cls-24" points="832.19 184.54 834.57 182.07 841.88 179.03 842.67 182.73 838.1 185.52 832.19 184.54"/>
          <polygon class="cls-13" points="834.57 182.07 837.89 184.81 842.67 182.73 841.88 179.03 834.57 182.07"/>
          <polygon class="cls-13" points="826.06 185.52 819.98 191.63 821.3 195.17 824.5 199.13 828.06 187.53 826.06 185.52"/>
          <polygon class="cls-28" points="837.89 184.81 838.1 185.52 842.67 182.73 837.89 184.81"/>
          <polygon class="cls-28" points="338.93 273.92 336.14 277.73 342.64 275.49 338.93 273.92"/>
          <polygon class="cls-28" points="191.85 242.35 187.67 246.64 195.39 245.34 191.85 242.35"/>
          <polygon class="cls-28" points="183 232.39 170.95 235.29 180.13 237.29 203.4 224.92 183 232.39"/>
          <polygon class="cls-12" points="606.7 235.94 604.34 237.29 606.7 232.93 606.7 235.94"/>
          <polygon class="cls-12" points="610.62 214.53 608.48 214.85 609.06 217.41 610.62 216.05 610.62 214.53"/>
          <polygon class="cls-12" points="669.63 238.84 676.45 249.29 669.63 247.52 669.63 238.84"/>
          <g>
            <polygon class="cls-14" points="273.5 309 264.5 309 262.61 307.55 274.54 279.13 283.45 274.96 284.4 276.29 276.25 299.4 276.82 302.81 273.5 309"/>
            <polygon class="cls-13" points="283.45 274.96 273.5 299.88 276.25 299.4 284.4 276.29 283.45 274.96"/>
            <polygon class="cls-13" points="276.82 302.81 269.24 304.23 266.11 306.79 273.5 309 276.82 302.81"/>
            <polygon class="cls-28" points="262.61 307.55 266.11 306.79 273.5 309 264.5 309 262.61 307.55"/>
            <polygon class="cls-33" points="269.99 290.4 269.83 289.92 278.59 287.12 279.94 289.41 279.51 289.67 278.36 287.72 269.99 290.4"/>
          </g>
          <g>
            <polygon class="cls-25" points="325.55 258.93 337.4 216.87 346.04 212.48 349.26 222.14 341.49 258.33 339.31 258.33 338.55 257.29 340.64 247.34 339.41 245.82 335.43 254.09 332.3 254.09 330.12 256.34 325.55 258.93"/>
            <polygon class="cls-13" points="346.04 212.48 338.55 240.61 343.01 244.97 339.78 257.29 341.49 258.33 349.26 222.14 346.04 212.48"/>
            <polygon class="cls-28" points="338.55 240.61 331.01 247.91 326.56 257 325.55 258.93 330.12 256.34 332.3 254.09 335.43 254.09 339.41 245.82 340.64 247.34 343.01 244.97 338.55 240.61"/>
            <polygon class="cls-32" points="347.12 231.55 342.09 227.41 333.81 230.13 333.66 229.65 342.19 226.85 347.44 231.17 347.12 231.55"/>
            <polygon class="cls-30" points="346.04 212.48 339.5 237.06 342.77 238.53 348.27 219.17 346.04 212.48"/>
          </g>
          <g>
            <polygon class="cls-26" points="671.75 215.19 680.47 215.19 684.13 212.16 676.68 184.88 674.15 184.88 667.84 194.22 671.75 215.19"/>
            <polygon class="cls-13" points="674.15 184.88 676.23 209.63 684.13 212.16 676.68 184.88 674.15 184.88"/>
            <polygon class="cls-27" points="676.23 209.63 671.75 215.19 680.47 215.19 684.13 212.16 676.23 209.63"/>
          </g>
        </g>
      </g>
    </g>
  </g>
</svg>