<?xml version="1.0" encoding="UTF-8"?>
<svg xmlns="http://www.w3.org/2000/svg" xmlns:xlink="http://www.w3.org/1999/xlink" viewBox="0 0 1800.45 523.78">
  <defs>
    <style>
      .cls-1 {
        fill: none;
      }

      .cls-2, .cls-3, .cls-4, .cls-5, .cls-6, .cls-7, .cls-8, .cls-9, .cls-10, .cls-11, .cls-12, .cls-13, .cls-14 {
        fill-rule: evenodd;
      }

      .cls-2, .cls-4, .cls-13, .cls-14 {
        mix-blend-mode: soft-light;
      }

      .cls-2, .cls-4, .cls-14 {
        fill: #ecaba4;
      }

      .cls-2, .cls-11, .cls-12 {
        opacity: .5;
      }

      .cls-15 {
        clip-path: url(#clippath);
      }

      .cls-16 {
        fill: #230d32;
      }

      .cls-3 {
        fill: url(#_ÂÁ_Ï_ÌÌ_È_ËÂÌÚ_131);
      }

      .cls-5 {
        fill: url(#_ÂÁ_Ï_ÌÌ_È_ËÂÌÚ_131-2);
      }

      .cls-6 {
        fill: url(#_ÂÁ_Ï_ÌÌ_È_ËÂÌÚ_131-3);
      }

      .cls-7 {
        fill: #479cf2;
      }

      .cls-8 {
        fill: #47fff2;
      }

      .cls-9 {
        fill: #290823;
      }

      .cls-10 {
        fill: #90576a;
      }

      .cls-11 {
        fill: #ae9aff;
      }

      .cls-11, .cls-12 {
        mix-blend-mode: multiply;
      }

      .cls-12 {
        fill: #b3a9be;
      }

      .cls-17 {
        isolation: isolate;
      }

      .cls-13 {
        fill: #ecdedd;
        opacity: .2;
      }

      .cls-14 {
        opacity: .59;
      }
    </style>
    <clipPath id="clippath">
      <rect class="cls-1" x="77.57" y="64.25" width="1000" height="400"/>
    </clipPath>
    <linearGradient id="_ÂÁ_Ï_ÌÌ_È_ËÂÌÚ_131" data-name="¡ÂÁ˚ÏˇÌÌ˚È „‡‰ËÂÌÚ 131" x1="889.75" y1="253.41" x2="889.75" y2="177.15" gradientUnits="userSpaceOnUse">
      <stop offset="0" stop-color="#3b1b36"/>
      <stop offset="1" stop-color="#311134"/>
    </linearGradient>
    <linearGradient id="_ÂÁ_Ï_ÌÌ_È_ËÂÌÚ_131-2" data-name="¡ÂÁ˚ÏˇÌÌ˚È „‡‰ËÂÌÚ 131" x1="815.84" y1="439.68" x2="815.84" y2="221.61" xlink:href="#_ÂÁ_Ï_ÌÌ_È_ËÂÌÚ_131"/>
    <linearGradient id="_ÂÁ_Ï_ÌÌ_È_ËÂÌÚ_131-3" data-name="¡ÂÁ˚ÏˇÌÌ˚È „‡‰ËÂÌÚ 131" x1="978.32" y1="440.12" x2="978.32" y2="343.1" xlink:href="#_ÂÁ_Ï_ÌÌ_È_ËÂÌÚ_131"/>
  </defs>
  <g class="cls-17">
    <g id="side_cliff" data-name="side cliff">
      <g class="cls-15">
        <g>
          <g>
            <polygon class="cls-3" points="874.89 238.54 867.44 216.68 868.96 208.53 864.79 186.49 871.1 177.15 899.65 186.49 903.31 201.9 902.05 203.67 903.31 212.01 905.08 212.89 914.72 253.41 906.98 252.56 903.44 241.95 901.8 241.69 901.1 240.49 874.89 238.54"/>
            <polygon class="cls-4" points="871.1 177.15 883.61 230.14 906.47 234.65 911.4 249.85 914.72 253.41 905.08 212.89 903.31 212.01 902.05 203.67 882.53 196.97 903.31 201.9 899.65 186.49 871.1 177.15"/>
            <polygon class="cls-7" points="883.61 230.14 874.89 238.54 901.1 240.49 906.47 234.65 883.61 230.14"/>
            <polygon class="cls-7" points="911.4 249.85 906.98 252.56 914.72 253.41 911.4 249.85"/>
            <rect class="cls-16" x="891.97" y="199.54" width=".5" height="10.74" transform="translate(-21.35 263.47) rotate(-16.6)"/>
            <polygon class="cls-16" points="910.38 235.56 906.43 234.9 906.51 234.4 910.46 235.07 910.38 235.56"/>
            <polygon class="cls-16" points="867.83 215.61 867.52 215.23 878.05 206.61 878.17 206.63 903.36 211.76 903.26 212.25 878.19 207.14 867.83 215.61"/>
            <polygon class="cls-13" points="871.1 177.15 883.61 230.14 892.91 231.97 885.5 189.9 886.77 190.41 892.22 214.34 901.17 215.42 899.48 202.79 893.75 200.82 896.4 200.26 893.75 184.56 871.1 177.15"/>
            <polygon class="cls-10" points="876.91 230.14 876.91 225.24 877.67 225.24 877.67 229.76 876.91 230.14"/>
            <polygon class="cls-10" points="874.89 224.26 874.32 221.61 874.61 220.73 875.97 223.13 874.89 224.26"/>
            <polygon class="cls-10" points="871.1 193.31 871.86 189.15 873 193.31 871.1 193.31"/>
            <polygon class="cls-8" points="883.15 239.15 892.91 231.97 898.44 233.11 888.17 239.53 883.15 239.15"/>
            <polygon class="cls-8" points="890.52 239.78 905.65 235.54 903.86 237.49 892.22 239.83 890.52 239.78"/>
          </g>
          <g>
            <polygon class="cls-5" points="781.67 425.1 787.74 405.78 784.7 401.4 795.31 369.65 799.36 365.04 796.96 274.09 807.32 261.52 812.78 270.35 823.11 368.14 828.66 371.29 819.57 279.71 821.08 276.93 816.79 240.3 843.31 221.61 865.55 237.78 876.91 293.36 887.78 300.14 890.81 323.36 885.76 330.37 883.1 330.37 885.12 346.79 893.34 356.01 923.9 439.68 707.78 439.68 716.24 434.2 739.36 433.82 741.88 437.86 748.2 430.41 772.96 428.14 779.07 431.99 781.67 425.1"/>
            <polygon class="cls-4" points="807.32 261.52 814.39 367.5 814.39 376.45 823.11 381.9 829.92 378.24 828.66 371.29 823.11 368.14 812.78 270.35 807.32 261.52"/>
            <polygon class="cls-4" points="843.31 221.61 850.39 289.43 848.68 291.15 852.66 342.07 858.54 349.99 872.69 439.68 923.9 439.68 893.34 356.01 885.12 346.79 883.1 330.37 867.44 321.71 864.03 306.82 876.91 293.36 865.55 237.78 843.31 221.61"/>
            <polygon class="cls-4" points="887.78 300.14 878.32 294.23 872.69 300.14 869.84 307.76 876.91 319 886.63 327.68 890.81 323.36 887.78 300.14"/>
            <polygon class="cls-9" points="821.08 276.93 850.39 289.43 876.91 293.36 848.68 291.15 821.08 276.93"/>
            <polygon class="cls-9" points="784.7 401.4 823.11 396.68 832.2 399.04 823.11 397.57 788.24 403.5 787.74 405.78 784.7 401.4"/>
            <polygon class="cls-9" points="748.2 430.41 770.56 433.95 801 439.68 743.02 439.68 741.88 437.86 748.2 430.41"/>
            <polygon class="cls-9" points="716.24 434.2 727.06 437.99 743.9 439.68 707.78 439.68 716.24 434.2"/>
            <polygon class="cls-2" points="823.11 381.9 826.51 439.68 837.69 439.68 829.92 378.24 823.11 381.9"/>
            <polygon class="cls-4" points="858.54 349.99 893.34 356.01 885.12 346.79 852.66 342.07 858.54 349.99"/>
            <polygon class="cls-4" points="872.69 300.14 887.78 300.14 878.32 294.23 872.69 300.14"/>
            <polygon class="cls-16" points="917.36 439.77 911.61 425.35 905.77 425.35 905.72 425.16 890.61 363.52 870.14 363.52 877.21 404.6 873.26 404.6 877.16 439.65 876.67 439.71 872.7 404.1 876.62 404.1 869.54 363.02 891.01 363.02 891.05 363.21 906.16 424.85 911.95 424.85 917.82 439.59 917.36 439.77"/>
            <rect class="cls-16" x="896.92" y="387.72" width="8.01" height=".5" transform="translate(-22.48 57.04) rotate(-3.58)"/>
            <rect class="cls-16" x="863.51" y="381.24" width="9.47" height=".5"/>
            <rect class="cls-16" x="827.52" y="358.79" width="32.28" height=".5" transform="translate(-27.75 73.89) rotate(-4.93)"/>
            <polygon class="cls-16" points="843.07 439.71 837.42 388.02 843.52 386.69 849.46 424.85 859.46 424.85 850.91 358.43 851.4 358.36 860.03 425.35 849.04 425.35 849 425.14 843.11 387.29 837.97 388.41 843.56 439.65 843.07 439.71"/>
            <rect class="cls-16" x="855.31" y="387.97" width="9.26" height=".5"/>
            <rect class="cls-16" x="824.24" y="325.88" width="27.14" height=".5" transform="translate(-32.48 100.56) rotate(-6.74)"/>
            <polygon class="cls-16" points="837.45 359.59 833.21 326.67 833.7 326.61 837.94 359.53 837.45 359.59"/>
            <rect class="cls-16" x="839.77" y="406.81" width="6.63" height=".5" transform="translate(-36.89 87.47) rotate(-5.81)"/>
            <rect class="cls-16" x="841.19" y="285.74" width=".5" height="39.98" transform="translate(-22.36 70.47) rotate(-4.73)"/>
            <polygon class="cls-16" points="819.04 261.68 819.01 261.43 816.54 240.33 817.04 240.27 819.48 261.11 824.06 260.43 822.85 246.9 830.6 239.78 831.39 247.79 845.56 242.88 845.65 242.91 868.45 251.34 868.28 251.81 845.56 243.41 830.96 248.47 830.2 240.83 823.37 247.1 824.6 260.85 819.04 261.68"/>
            <rect class="cls-16" x="888.67" y="392.61" width=".5" height="24.01" transform="translate(464.34 1284.18) rotate(-88.71)"/>
            <rect class="cls-16" x="828.64" y="370.34" width="24.04" height=".5" transform="translate(-20.24 49.81) rotate(-3.35)"/>
            <polygon class="cls-16" points="822.97 368.35 813.99 362.59 799.4 365.29 799.31 364.8 814.09 362.06 814.18 362.12 823.24 367.92 822.97 368.35"/>
            <rect class="cls-16" x="786.97" y="391.8" width="36.73" height=".5" transform="translate(-40.42 97.15) rotate(-6.73)"/>
            <rect class="cls-16" x="783.03" y="417.13" width="42.19" height=".5" transform="translate(-48.26 110.37) rotate(-7.62)"/>
            <polygon class="cls-16" points="797.2 438.95 796.71 438.89 799.11 418.17 799.6 418.23 797.2 438.95"/>
            <polygon class="cls-16" points="817.36 315.56 810.39 308.92 798.04 312.65 797.89 312.17 810.53 308.36 817.71 315.2 817.36 315.56"/>
            <rect class="cls-16" x="796.32" y="283.83" width="13.26" height=".5" transform="translate(-29.26 465.33) rotate(-31.77)"/>
            <rect class="cls-16" x="797.72" y="316.94" width="13.44" height=".5" transform="translate(-55.67 228.03) rotate(-15.6)"/>
            <rect class="cls-16" x="798.29" y="350.41" width="15.53" height=".5" transform="translate(-72.17 388.22) rotate(-25.96)"/>
            <rect class="cls-16" x="805.23" y="351.18" width=".5" height="12.63" transform="translate(-28.91 73.97) rotate(-5.17)"/>
            <polygon class="cls-16" points="831.95 359.59 830.12 345.35 835.69 344.15 835.79 344.64 830.68 345.74 832.45 359.53 831.95 359.59"/>
            <rect class="cls-16" x="823.15" y="249.6" width="8.4" height=".5" transform="translate(-29.69 361.29) rotate(-24.21)"/>
            <rect class="cls-16" x="838.73" y="225.21" width=".5" height="19.97" transform="translate(-16.37 69.13) rotate(-4.67)"/>
            <rect class="cls-16" x="838.74" y="232.18" width="5.82" height=".5" transform="translate(-23.46 350.68) rotate(-23.22)"/>
            <polygon class="cls-16" points="874.97 284.33 849.28 279.5 849.37 279.01 875.06 283.84 874.97 284.33"/>
            <rect class="cls-16" x="866.61" y="249.51" width=".5" height="34" transform="translate(-35.56 176.45) rotate(-11.39)"/>
            <rect class="cls-16" x="868.34" y="261.3" width=".5" height="5.01" transform="translate(379.86 1028.78) rotate(-74.32)"/>
            <polygon class="cls-13" points="858.54 349.99 871.64 433.04 885.63 430.41 876.91 389.88 880.32 388.22 885.63 417.38 893.34 416.01 883.61 367.08 887.78 367.5 895.48 391.52 906.53 392.13 893.34 356.01 858.54 349.99"/>
            <polygon class="cls-13" points="906.53 439.68 900.92 410.32 912.68 408.96 923.9 439.68 906.53 439.68"/>
            <polygon class="cls-13" points="843.31 221.61 850.39 289.43 864.79 291.56 859.48 254.67 861 254.77 866.18 285.14 875.55 286.7 866.18 240.88 864.79 241.22 871.01 270.02 866.86 270.21 859.76 233.57 843.31 221.61"/>
            <polygon class="cls-13" points="853.67 296.26 858.54 343.1 868.24 344.34 863.51 313.82 861.78 313.44 864.57 335.93 863.51 335.8 859.43 300.14 853.67 296.26"/>
            <polygon class="cls-13" points="807.32 261.52 812.26 335.68 814.77 338.33 810.22 287.57 811.23 287.57 814.77 325.65 818.84 327.71 812.78 270.35 807.32 261.52"/>
            <polygon class="cls-13" points="795.31 369.65 814.35 366.88 814.04 362.33 799.36 365.04 795.31 369.65"/>
            <polygon class="cls-4" points="814.39 376.45 823.11 368.14 828.66 371.29 829.92 378.24 823.11 381.9 814.39 376.45"/>
            <polygon class="cls-4" points="748.2 430.41 787.1 437.06 772.96 428.14 748.2 430.41"/>
            <polygon class="cls-4" points="716.24 434.2 727.06 437.99 742.54 438.92 739.36 433.82 716.24 434.2"/>
            <polygon class="cls-11" points="858.54 349.99 872.69 439.68 865.61 439.68 855.31 367.08 849 368.1 853.67 412.46 849 412.46 837.69 285.14 848.68 291.15 852.66 342.07 858.54 349.99"/>
            <polygon class="cls-11" points="843.31 221.61 850.39 289.43 844.79 287.05 841.65 254.32 839.79 255.52 841.65 282.39 839.79 282.39 835.57 238.03 833.46 238.03 835.57 257.02 829.04 259.16 826.34 233.57 843.31 221.61"/>
            <polygon class="cls-11" points="807.32 261.52 814.39 376.45 823.11 381.9 823.11 396.68 810.01 398.29 810.6 379.91 808.45 379.63 807.32 398.62 802.06 399.27 799.36 272.01 807.32 261.52"/>
            <polygon class="cls-11" points="826.51 439.68 824.32 402.48 817.17 404.35 814.39 439.68 826.51 439.68"/>
            <polygon class="cls-12" points="806.05 422.83 806.05 428.56 813.04 428.14 814.39 421.08 806.05 422.83"/>
            <polygon class="cls-12" points="846.39 438.92 844.58 421.08 855.31 418.2 857.34 439.68 846.39 438.92"/>
            <polygon class="cls-7" points="890.81 323.36 886.63 327.68 876.91 319 869.84 307.76 872.69 300.14 878.32 294.23 876.91 293.36 864.03 306.82 867.44 321.71 883.1 330.37 885.76 330.37 890.81 323.36"/>
            <polygon class="cls-10" points="839.79 424.32 838.74 418.2 839.79 418.2 841.69 424.82 839.79 424.32"/>
            <polygon class="cls-10" points="837.69 430.41 837.69 428.14 838.74 428.14 838.48 430.63 837.69 430.41"/>
            <polygon class="cls-10" points="859.94 433.82 858.54 428.94 859.74 428.56 859.94 433.82"/>
            <polygon class="cls-10" points="810.22 413.74 815.05 407.06 813.04 411.08 810.22 413.74"/>
            <polygon class="cls-10" points="796.96 389.88 795.31 386.23 796.14 384.36 797.97 389.88 796.96 389.88"/>
            <polygon class="cls-10" points="835.57 314.45 835.57 306.82 836.43 305.73 835.57 314.45"/>
            <polygon class="cls-10" points="833.46 305.73 833.07 304.41 831.25 304.41 832.72 306.07 833.46 305.73"/>
            <polygon class="cls-10" points="833.46 266.51 833.46 263.96 835.14 262.63 834.3 266.99 833.46 266.51"/>
            <polygon class="cls-10" points="809.02 342.07 809.71 340.3 810.22 341.19 809.02 342.07"/>
            <polygon class="cls-8" points="867.44 321.71 876.91 319 869.84 307.76 864.03 306.82 867.44 321.71"/>
            <polygon class="cls-8" points="875.43 326.13 879.95 321.71 881.56 323.15 877.42 327.23 875.43 326.13"/>
            <polygon class="cls-8" points="883.1 330.37 884.59 325.85 886.63 327.68 885.76 330.37 883.1 330.37"/>
          </g>
          <g>
            <polygon class="cls-6" points="934.82 440.12 925.77 385.05 929.59 370.59 945.81 372.95 956.99 407.84 961.38 408.54 948.89 352.59 954.95 343.1 971.75 345.32 1003.68 429.38 1009.32 429.38 1017.07 435.07 1030.86 438.27 934.82 440.12"/>
            <polygon class="cls-14" points="954.95 343.1 972.01 427.77 980.09 427.77 970.49 386.91 973.02 386.91 986.15 438.92 1006.87 438.92 971.75 345.32 954.95 343.1"/>
            <polygon class="cls-14" points="929.59 370.59 945.67 439.9 964.25 439.39 945.81 372.95 929.59 370.59"/>
            <polygon class="cls-4" points="1009.32 429.38 1004.88 429.38 1008.1 435.07 1017.07 435.07 1009.32 429.38"/>
            <polygon class="cls-4" points="1020.45 435.85 1011.62 437.43 1034.34 437.95 1020.45 435.85"/>
            <polygon class="cls-16" points="929.88 408.97 929.48 408.67 936.22 399.47 953.17 399.22 953.18 399.72 936.47 399.97 929.88 408.97"/>
            <polygon class="cls-16" points="933.41 430.58 933.05 430.23 941.39 421.66 959.62 422.44 959.6 422.94 941.6 422.17 933.41 430.58"/>
            <rect class="cls-16" x="947.32" y="421.86" width=".5" height="18.38" transform="translate(-86.36 309.88) rotate(-17.78)"/>
            <polygon class="cls-16" points="956.13 439.72 952.93 422.73 953.42 422.64 956.62 439.63 956.13 439.72"/>
            <polygon class="cls-16" points="932.98 404.64 927.41 377.99 927.9 377.89 933.47 404.54 932.98 404.64"/>
            <polygon class="cls-16" points="949.35 386.16 942.74 384.36 939.93 371.86 940.41 371.75 943.16 383.96 949.48 385.68 949.35 386.16"/>
            <polygon class="cls-16" points="978.13 381.38 978.08 381.19 967.78 344.48 968.27 344.34 978.51 380.87 985.27 380.68 985.29 381.18 978.13 381.38"/>
            <polygon class="cls-16" points="953.85 373.91 953.4 373.7 958.83 362.08 973.05 362.08 973.05 362.58 959.15 362.58 953.85 373.91"/>
            <rect class="cls-16" x="971.3" y="403.31" width=".5" height="7.59" transform="translate(468.44 1332.59) rotate(-84.21)"/>
            <rect class="cls-16" x="982.47" y="424.07" width="19.72" height=".5"/>
            <rect class="cls-16" x="995.02" y="424" width=".5" height="15.23" transform="translate(-81.72 301.44) rotate(-16.55)"/>
            <rect class="cls-16" x="955.99" y="392.31" width="10.86" height=".5" transform="translate(166.22 1060.46) rotate(-62.24)"/>
            <polygon class="cls-13" points="954.95 343.1 962.92 382.66 966.7 381.9 960.83 356.01 963.34 356.01 975.32 387.97 987.85 387.71 971.75 345.32 954.95 343.1"/>
            <polygon class="cls-13" points="989.85 392.05 980.09 392.05 984.6 408.82 996.15 409.36 989.85 392.05"/>
            <polygon class="cls-13" points="982.46 409.36 984.6 419.15 995.27 417.96 991.33 410.48 982.46 409.36"/>
            <polygon class="cls-13" points="972.01 427.77 966.03 398.1 972.4 395.03 980.09 427.77 972.01 427.77"/>
            <polygon class="cls-13" points="929.59 370.59 939.06 411.4 941.43 411.4 936.48 388.22 940.17 388.22 947.57 411.4 953.17 410.38 949.41 390.16 950.59 390.16 945.81 372.95 929.59 370.59"/>
            <polygon class="cls-11" points="929.59 370.59 939.58 413.66 937.14 415.97 931.12 391.01 930.44 391.61 937.9 438.92 935.92 439.23 925.77 385.05 929.59 370.59"/>
            <polygon class="cls-11" points="954.95 343.1 972.01 427.77 969.73 426.77 963.08 399.44 962.72 397.97 961.69 399.05 964.9 415.85 963.48 420.23 948.89 352.59 954.95 343.1"/>
            <polygon class="cls-10" points="937.71 431.82 936.66 425.7 937.71 425.7 939.61 432.32 937.71 431.82"/>
            <polygon class="cls-10" points="965.98 416.85 965.98 409.22 966.84 408.13 965.98 416.85"/>
            <polygon class="cls-10" points="963.78 399.69 963.39 398.36 961.58 398.36 963.04 400.02 963.78 399.69"/>
          </g>
        </g>
      </g>
    </g>
  </g>
</svg>