<?xml version="1.0" encoding="UTF-8"?>
<svg xmlns="http://www.w3.org/2000/svg" xmlns:xlink="http://www.w3.org/1999/xlink" viewBox="0 0 182.42 202.84">
  <defs>
    <style>
      .cls-1 {
        fill: url(#linear-gradient-3);
      }

      .cls-1, .cls-2, .cls-3, .cls-4, .cls-5, .cls-6, .cls-7, .cls-8, .cls-9, .cls-10, .cls-11, .cls-12, .cls-13, .cls-14, .cls-15, .cls-16, .cls-17, .cls-18, .cls-19, .cls-20, .cls-21, .cls-22, .cls-23, .cls-24, .cls-25, .cls-26, .cls-27, .cls-28, .cls-29, .cls-30, .cls-31, .cls-32, .cls-33, .cls-34, .cls-35, .cls-36, .cls-37, .cls-38, .cls-39, .cls-40, .cls-41, .cls-42, .cls-43 {
        fill-rule: evenodd;
      }

      .cls-1, .cls-2, .cls-3, .cls-4, .cls-8, .cls-9, .cls-10, .cls-17, .cls-18, .cls-19, .cls-20, .cls-21, .cls-38, .cls-39, .cls-40, .cls-41, .cls-42, .cls-43 {
        mix-blend-mode: multiply;
      }

      .cls-2 {
        fill: url(#linear-gradient-2);
      }

      .cls-3 {
        fill: url(#linear-gradient-4);
      }

      .cls-4 {
        fill: url(#linear-gradient-5);
      }

      .cls-5 {
        fill: url(#_ÂÁ_Ï_ÌÌ_È_ËÂÌÚ_4);
      }

      .cls-6 {
        fill: url(#linear-gradient);
      }

      .cls-7 {
        fill: #253dd1;
        opacity: .2;
      }

      .cls-7, .cls-44, .cls-45, .cls-46 {
        mix-blend-mode: screen;
      }

      .cls-44 {
        fill: url(#_ÂÁ_Ï_ÌÌ_È_ËÂÌÚ_590-2);
      }

      .cls-44, .cls-17, .cls-18, .cls-19, .cls-20, .cls-21, .cls-38, .cls-45, .cls-46, .cls-39, .cls-40, .cls-41 {
        opacity: .5;
      }

      .cls-8 {
        opacity: .74;
      }

      .cls-8, .cls-38 {
        fill: #a359aa;
      }

      .cls-9 {
        fill: url(#_ÂÁ_Ï_ÌÌ_È_ËÂÌÚ_550-4);
      }

      .cls-10 {
        fill: url(#_ÂÁ_Ï_ÌÌ_È_ËÂÌÚ_540-2);
      }

      .cls-11 {
        fill: url(#_ÂÁ_Ï_ÌÌ_È_ËÂÌÚ_504);
      }

      .cls-12 {
        fill: url(#_ÂÁ_Ï_ÌÌ_È_ËÂÌÚ_456);
      }

      .cls-13 {
        fill: url(#_ÂÁ_Ï_ÌÌ_È_ËÂÌÚ_497);
      }

      .cls-14 {
        fill: url(#_ÂÁ_Ï_ÌÌ_È_ËÂÌÚ_496);
      }

      .cls-15 {
        fill: url(#_ÂÁ_Ï_ÌÌ_È_ËÂÌÚ_450);
      }

      .cls-16 {
        fill: url(#_ÂÁ_Ï_ÌÌ_È_ËÂÌÚ_477);
      }

      .cls-17 {
        fill: url(#_ÂÁ_Ï_ÌÌ_È_ËÂÌÚ_264-2);
      }

      .cls-18 {
        fill: url(#_ÂÁ_Ï_ÌÌ_È_ËÂÌÚ_550-3);
      }

      .cls-19 {
        fill: url(#_ÂÁ_Ï_ÌÌ_È_ËÂÌÚ_550-2);
      }

      .cls-20 {
        fill: url(#_ÂÁ_Ï_ÌÌ_È_ËÂÌÚ_541-3);
      }

      .cls-21 {
        fill: url(#_ÂÁ_Ï_ÌÌ_È_ËÂÌÚ_541-2);
      }

      .cls-22 {
        fill: url(#_ÂÁ_Ï_ÌÌ_È_ËÂÌÚ_477-2);
      }

      .cls-23 {
        fill: url(#_ÂÁ_Ï_ÌÌ_È_ËÂÌÚ_497-2);
      }

      .cls-24 {
        fill: url(#_ÂÁ_Ï_ÌÌ_È_ËÂÌÚ_504-2);
      }

      .cls-25 {
        fill: #390c42;
      }

      .cls-26 {
        fill: #2c1857;
      }

      .cls-27 {
        fill: #490a37;
      }

      .cls-28 {
        fill: #492052;
      }

      .cls-29 {
        fill: #392f7c;
      }

      .cls-30 {
        fill: #2c002a;
      }

      .cls-31 {
        fill: #47203b;
      }

      .cls-32 {
        fill: #6f273b;
      }

      .cls-33 {
        fill: #250c42;
      }

      .cls-34 {
        fill: #a100ba;
      }

      .cls-35 {
        fill: #ff9f90;
      }

      .cls-36 {
        fill: #ff54e5;
      }

      .cls-37 {
        fill: #00c2ff;
      }

      .cls-47 {
        isolation: isolate;
      }

      .cls-45 {
        fill: url(#_ÂÁ_Ï_ÌÌ_È_ËÂÌÚ_590);
      }

      .cls-46 {
        fill: url(#_ÂÁ_Ï_ÌÌ_È_ËÂÌÚ_586);
      }

      .cls-39 {
        fill: url(#_ÂÁ_Ï_ÌÌ_È_ËÂÌÚ_264);
      }

      .cls-40 {
        fill: url(#_ÂÁ_Ï_ÌÌ_È_ËÂÌÚ_550);
      }

      .cls-41 {
        fill: url(#_ÂÁ_Ï_ÌÌ_È_ËÂÌÚ_541);
      }

      .cls-42 {
        fill: url(#_ÂÁ_Ï_ÌÌ_È_ËÂÌÚ_540);
      }

      .cls-43 {
        fill: url(#_ÂÁ_Ï_ÌÌ_È_ËÂÌÚ_546);
      }
    </style>
    <linearGradient id="linear-gradient" x1="58.21" y1="185.04" x2="58.21" y2="71.6" gradientUnits="userSpaceOnUse">
      <stop offset="0" stop-color="#47156b"/>
      <stop offset="1" stop-color="#29000d"/>
    </linearGradient>
    <linearGradient id="_ÂÁ_Ï_ÌÌ_È_ËÂÌÚ_497" data-name="¡ÂÁ˚ÏˇÌÌ˚È „‡‰ËÂÌÚ 497" x1="70.42" y1="186.57" x2="70.42" y2="126.28" gradientUnits="userSpaceOnUse">
      <stop offset="0" stop-color="#45003b"/>
      <stop offset="1" stop-color="#270028"/>
    </linearGradient>
    <linearGradient id="_ÂÁ_Ï_ÌÌ_È_ËÂÌÚ_497-2" data-name="¡ÂÁ˚ÏˇÌÌ˚È „‡‰ËÂÌÚ 497" x1="116.83" y1="175.66" x2="116.83" y2="119.34" xlink:href="#_ÂÁ_Ï_ÌÌ_È_ËÂÌÚ_497"/>
    <linearGradient id="_ÂÁ_Ï_ÌÌ_È_ËÂÌÚ_4" data-name="¡ÂÁ˚ÏˇÌÌ˚È „‡‰ËÂÌÚ 4" x1="99.01" y1="130.4" x2="99.01" y2="55.42" gradientUnits="userSpaceOnUse">
      <stop offset="0" stop-color="#450f3e"/>
      <stop offset="1" stop-color="#56003b"/>
    </linearGradient>
    <linearGradient id="_ÂÁ_Ï_ÌÌ_È_ËÂÌÚ_546" data-name="¡ÂÁ˚ÏˇÌÌ˚È „‡‰ËÂÌÚ 546" x1="95.66" y1="99.14" x2="95.66" y2="81.69" gradientUnits="userSpaceOnUse">
      <stop offset="0" stop-color="#cec7ff"/>
      <stop offset=".24" stop-color="#bbaeee"/>
      <stop offset=".73" stop-color="#8d71c6"/>
      <stop offset="1" stop-color="#724dae"/>
    </linearGradient>
    <linearGradient id="_ÂÁ_Ï_ÌÌ_È_ËÂÌÚ_477" data-name="¡ÂÁ˚ÏˇÌÌ˚È „‡‰ËÂÌÚ 477" x1="114.5" y1="114.83" x2="114.5" y2="49.63" gradientUnits="userSpaceOnUse">
      <stop offset="0" stop-color="#270028"/>
      <stop offset="1" stop-color="#45003b"/>
    </linearGradient>
    <linearGradient id="_ÂÁ_Ï_ÌÌ_È_ËÂÌÚ_450" data-name="¡ÂÁ˚ÏˇÌÌ˚È „‡‰ËÂÌÚ 450" x1="69.61" y1="185.04" x2="69.61" y2="0" gradientUnits="userSpaceOnUse">
      <stop offset="0" stop-color="#310035"/>
      <stop offset="1" stop-color="#390054"/>
    </linearGradient>
    <linearGradient id="_ÂÁ_Ï_ÌÌ_È_ËÂÌÚ_540" data-name="¡ÂÁ˚ÏˇÌÌ˚È „‡‰ËÂÌÚ 540" x1="47.93" y1="82.34" x2="120.77" y2="82.34" gradientUnits="userSpaceOnUse">
      <stop offset="0" stop-color="#fff"/>
      <stop offset=".17" stop-color="#ebe6f4"/>
      <stop offset=".52" stop-color="#baa8d7"/>
      <stop offset="1" stop-color="#724dae"/>
    </linearGradient>
    <linearGradient id="_ÂÁ_Ï_ÌÌ_È_ËÂÌÚ_456" data-name="¡ÂÁ˚ÏˇÌÌ˚È „‡‰ËÂÌÚ 456" x1="94.66" y1="80.73" x2="94.66" y2="43.51" gradientUnits="userSpaceOnUse">
      <stop offset="0" stop-color="#470f72"/>
      <stop offset="1" stop-color="#390054"/>
    </linearGradient>
    <linearGradient id="_ÂÁ_Ï_ÌÌ_È_ËÂÌÚ_496" data-name="¡ÂÁ˚ÏˇÌÌ˚È „‡‰ËÂÌÚ 496" x1="108.84" y1="102.51" x2="108.84" y2="81.7" gradientUnits="userSpaceOnUse">
      <stop offset="0" stop-color="#2f002c"/>
      <stop offset="1" stop-color="#3b0948"/>
    </linearGradient>
    <linearGradient id="_ÂÁ_Ï_ÌÌ_È_ËÂÌÚ_504" data-name="¡ÂÁ˚ÏˇÌÌ˚È „‡‰ËÂÌÚ 504" x1="63.88" y1="202.84" x2="63.88" y2="169.15" gradientUnits="userSpaceOnUse">
      <stop offset="0" stop-color="#5c223e"/>
      <stop offset="1" stop-color="#560e3b"/>
    </linearGradient>
    <linearGradient id="_ÂÁ_Ï_ÌÌ_È_ËÂÌÚ_504-2" data-name="¡ÂÁ˚ÏˇÌÌ˚È „‡‰ËÂÌÚ 504" x1="121.68" y1="196.03" x2="121.68" y2="156.43" xlink:href="#_ÂÁ_Ï_ÌÌ_È_ËÂÌÚ_504"/>
    <linearGradient id="_ÂÁ_Ï_ÌÌ_È_ËÂÌÚ_477-2" data-name="¡ÂÁ˚ÏˇÌÌ˚È „‡‰ËÂÌÚ 477" x1="123.21" y1="94.29" x2="123.21" y2="78.03" xlink:href="#_ÂÁ_Ï_ÌÌ_È_ËÂÌÚ_477"/>
    <linearGradient id="linear-gradient-2" x1="46.72" y1="185.04" x2="46.72" y2="96.78" gradientUnits="userSpaceOnUse">
      <stop offset="0" stop-color="#c131ff"/>
      <stop offset="1" stop-color="#b710f4"/>
    </linearGradient>
    <linearGradient id="_ÂÁ_Ï_ÌÌ_È_ËÂÌÚ_541" data-name="¡ÂÁ˚ÏˇÌÌ˚È „‡‰ËÂÌÚ 541" x1="94.82" y1="126.92" x2="94.82" y2="114.13" gradientUnits="userSpaceOnUse">
      <stop offset="0" stop-color="#724dae"/>
      <stop offset=".48" stop-color="#baa8d7"/>
      <stop offset=".83" stop-color="#ebe6f4"/>
      <stop offset="1" stop-color="#fff"/>
    </linearGradient>
    <linearGradient id="_ÂÁ_Ï_ÌÌ_È_ËÂÌÚ_541-2" data-name="¡ÂÁ˚ÏˇÌÌ˚È „‡‰ËÂÌÚ 541" x1="81.45" y1="115.04" x2="106.13" y2="115.04" xlink:href="#_ÂÁ_Ï_ÌÌ_È_ËÂÌÚ_541"/>
    <linearGradient id="linear-gradient-3" x1="44.18" y1="109.35" x2="46.31" y2="109.35" xlink:href="#linear-gradient-2"/>
    <linearGradient id="linear-gradient-4" x1="50.59" y1="101.01" x2="61.92" y2="101.01" xlink:href="#linear-gradient-2"/>
    <linearGradient id="_ÂÁ_Ï_ÌÌ_È_ËÂÌÚ_540-2" data-name="¡ÂÁ˚ÏˇÌÌ˚È „‡‰ËÂÌÚ 540" x1="106.65" y1="67.57" x2="106.65" y2="41.15" xlink:href="#_ÂÁ_Ï_ÌÌ_È_ËÂÌÚ_540"/>
    <linearGradient id="_ÂÁ_Ï_ÌÌ_È_ËÂÌÚ_541-3" data-name="¡ÂÁ˚ÏˇÌÌ˚È „‡‰ËÂÌÚ 541" x1="105" y1="45.95" x2="105" y2="31.88" xlink:href="#_ÂÁ_Ï_ÌÌ_È_ËÂÌÚ_541"/>
    <linearGradient id="_ÂÁ_Ï_ÌÌ_È_ËÂÌÚ_550" data-name="¡ÂÁ˚ÏˇÌÌ˚È „‡‰ËÂÌÚ 550" x1="63.88" y1="202.84" x2="63.88" y2="169.15" gradientUnits="userSpaceOnUse">
      <stop offset="0" stop-color="#72276d"/>
      <stop offset=".13" stop-color="#864581"/>
      <stop offset=".56" stop-color="#c6a8c4"/>
      <stop offset=".86" stop-color="#efe6ee"/>
      <stop offset="1" stop-color="#fff"/>
    </linearGradient>
    <linearGradient id="_ÂÁ_Ï_ÌÌ_È_ËÂÌÚ_550-2" data-name="¡ÂÁ˚ÏˇÌÌ˚È „‡‰ËÂÌÚ 550" x1="121.68" y1="196.03" x2="121.68" y2="156.43" xlink:href="#_ÂÁ_Ï_ÌÌ_È_ËÂÌÚ_550"/>
    <linearGradient id="_ÂÁ_Ï_ÌÌ_È_ËÂÌÚ_550-3" data-name="¡ÂÁ˚ÏˇÌÌ˚È „‡‰ËÂÌÚ 550" x1="85.37" y1="132.04" x2="85.37" y2="114.13" xlink:href="#_ÂÁ_Ï_ÌÌ_È_ËÂÌÚ_550"/>
    <linearGradient id="_ÂÁ_Ï_ÌÌ_È_ËÂÌÚ_550-4" data-name="¡ÂÁ˚ÏˇÌÌ˚È „‡‰ËÂÌÚ 550" x1="156.98" y1="105.61" x2="156.98" y2="86.16" xlink:href="#_ÂÁ_Ï_ÌÌ_È_ËÂÌÚ_550"/>
    <linearGradient id="_ÂÁ_Ï_ÌÌ_È_ËÂÌÚ_264" data-name="¡ÂÁ˚ÏˇÌÌ˚È „‡‰ËÂÌÚ 264" x1="56.18" y1="173.54" x2="56.18" y2="157.22" gradientUnits="userSpaceOnUse">
      <stop offset="0" stop-color="#724ddb"/>
      <stop offset=".48" stop-color="#baa8ed"/>
      <stop offset=".83" stop-color="#ebe6fa"/>
      <stop offset="1" stop-color="#fff"/>
    </linearGradient>
    <linearGradient id="_ÂÁ_Ï_ÌÌ_È_ËÂÌÚ_264-2" data-name="¡ÂÁ˚ÏˇÌÌ˚È „‡‰ËÂÌÚ 264" x1="113.95" y1="162.11" x2="113.95" y2="150.08" xlink:href="#_ÂÁ_Ï_ÌÌ_È_ËÂÌÚ_264"/>
    <radialGradient id="_ÂÁ_Ï_ÌÌ_È_ËÂÌÚ_586" data-name="¡ÂÁ˚ÏˇÌÌ˚È „‡‰ËÂÌÚ 586" cx="121.87" cy="136.21" fx="121.87" fy="136.21" r="38.79" gradientTransform="translate(-97.99 -14.65) scale(1.18 1.14)" gradientUnits="userSpaceOnUse">
      <stop offset="0" stop-color="#ff226b"/>
      <stop offset=".03" stop-color="#f42066"/>
      <stop offset=".24" stop-color="#ab1647"/>
      <stop offset=".44" stop-color="#6e0e2e"/>
      <stop offset=".62" stop-color="#3e081a"/>
      <stop offset=".78" stop-color="#1c030b"/>
      <stop offset=".91" stop-color="#070103"/>
      <stop offset="1" stop-color="#000"/>
    </radialGradient>
    <radialGradient id="_ÂÁ_Ï_ÌÌ_È_ËÂÌÚ_590" data-name="¡ÂÁ˚ÏˇÌÌ˚È „‡‰ËÂÌÚ 590" cx="183.47" cy="106.71" fx="183.47" fy="106.71" r="23.31" gradientTransform="translate(-97.99 -14.65) scale(1.18 1.14)" gradientUnits="userSpaceOnUse">
      <stop offset="0" stop-color="#0054ff"/>
      <stop offset=".03" stop-color="#0050f4"/>
      <stop offset=".24" stop-color="#0038ab"/>
      <stop offset=".44" stop-color="#00246e"/>
      <stop offset=".62" stop-color="#00143e"/>
      <stop offset=".78" stop-color="#00091c"/>
      <stop offset=".91" stop-color="#000207"/>
      <stop offset="1" stop-color="#000"/>
    </radialGradient>
    <radialGradient id="_ÂÁ_Ï_ÌÌ_È_ËÂÌÚ_590-2" data-name="¡ÂÁ˚ÏˇÌÌ˚È „‡‰ËÂÌÚ 590" cx="224.04" cy="93.13" fx="224.04" fy="93.13" r="12.81" xlink:href="#_ÂÁ_Ï_ÌÌ_È_ËÂÌÚ_590"/>
    <linearGradient id="linear-gradient-5" x1="55.1" y1="104.36" x2="58.52" y2="104.36" xlink:href="#linear-gradient-2"/>
  </defs>
  <g class="cls-47">
    <g id="Layer_2" data-name="Layer 2">
      <g id="wizard">
        <g>
          <path class="cls-6" d="M73.39,126.28s-41.34,26.09-48.75,58.76c0,0-14.4-20.12-6.3-46.34,8.1-26.23,44.25-44.3,56.48-49.17,12.23-4.87,25.72-17.93,25.72-17.93,0,0-11.21,46.53-27.16,54.68Z"/>
          <path class="cls-30" d="M69.61,130.41s8.18,2.58,14.62,1.81c6.44-.77,24.61-6.12,30.26-7.37,5.65-1.25,9.31-5.75,9.31-5.75l-14.97-1.2s-34.57,5.56-39.23,12.51Z"/>
          <path class="cls-30" d="M123.72,156.43s-11.35-.02-15.94,6.65c0,0,10.06,.74,15.94-6.65Z"/>
          <path class="cls-30" d="M70.42,169.15s-7.51-1.02-18.44,4.45c0,0,11.12,1.76,18.44-4.45Z"/>
          <path class="cls-13" d="M72.33,128.75s-5.25,18.52-8.49,22.79c0,0-5.93,2.69-7.88,5.19-1.95,2.5-3.99,29.84-3.99,29.84l5.93-1.53s7.83-21.72,11.7-27.38l4.15-2.51,1.02-2.32s4.45-4.26,7.6-8.99c3.15-4.73,6.48-17.18,6.48-17.18,0,0-12.49-1.7-16.53,2.08Z"/>
          <path class="cls-23" d="M105.27,125.56s7.98,7.63,12.24,18.1c0,0-5.29,3.36-6.12,6.42-.83,3.06,.42,25.58,.42,25.58h5.07s6.74-25.79,9.52-31.26l1.99-2.04s-1.06-15.17-7.13-23.02c0,0-8.77-.2-15.99,6.22Z"/>
          <path class="cls-5" d="M108.8,95.19l-.47,1.39c3.62,3.07,10.29,13.81,13.57,19.28h0c1.17,1.96,1.91,3.24,1.91,3.24,0,0-3.43,.18-5.47,.84-1.34,.43-5.4,2.49-9.5,4.23-2.14,.9-4.29,1.72-6.07,2.16-5.19,1.3-10.76,0-20.3,.37-.23,0-.45,.02-.67,.04-8.74,.47-11.97,3.47-12.17,3.66,.84-1.37,1.8-3.65,2.79-6.24h0c2.4-6.37,4.86-14.63,5.75-16.06,1.25-2.02,7.18-7.02,7.18-7.02l.37-.97-2.27-2.37,2.27-1.53v-3.68l25.86-30.4s18.07-12.35,16.74-3.52c-1.32,8.83-6.55,18.61-6.55,18.61-8.8,7.51-12.97,17.98-12.97,17.98Z"/>
          <path class="cls-8" d="M81.45,124.58s15.69-.4,18.33-1.5c2.64-1.09,7.3-5.79,10.5-7.23,3.2-1.44,11.34-.46,11.34-.46l-10.14-17.66-8.02,.28,5.21,10.57-27.22,16Z"/>
          <path class="cls-43" d="M83.45,97.73s12.09,.14,19.42-2.17l-17.14,.65s9.52-.57,13.29-1.91l-7.3-4.91,10.5-7.69,5.65,16.05s-17.15,1.54-23.63,1.4l-.79-1.4Z"/>
          <path class="cls-16" d="M118.34,99.4c6.85,3.71,10.61,7.09,10.61,7.09-.14,1.94-1.9,5.8-1.9,5.8l-1.53,.09-.6,.65-2.41,.55-.92,.47-2.14,.32-1.44,.46-4.12-1.2-.18-1.2h1.48v-2.92l-3.75-2.32,.37-4.68c-9.55-8.8-12.47-16.41-12.47-16.41l.86-2.13s7.3-30.49,14.29-33c7-2.5,15.16-.74,15.16-.74,0,0-4.04,15.47-6.77,19.83-2.73,4.36-11.04,12.05-11.04,12.05,.79,3.52,6.49,17.29,6.49,17.29Z"/>
          <path class="cls-35" d="M123.49,18.91s3.06,4.59,3.2,9.45h-3.2v-9.45Z"/>
          <path class="cls-15" d="M123.49,0s1.81,20.37,1.6,29.4c0,0-3.96,3.27-5.77,5.7l5.54-4.45,.23,10.15,.9,2.71s4.4,3.38,4.87,5.98c0,0-13.07,26.41-41.99,41.43s-61.59,23.08-68.82,46.57c-7.23,23.5,4.59,47.55,4.59,47.55,0,0-14.32-4.31-16.27-20.71,0,0,5.91-6.26,7.23-8.9,0,0-.58-11.86,6.46-25.86,7.04-14,23.7-28.64,40.02-43.84,16.31-15.2,20.02-35.96,20.02-35.96,0,0,4.26-2.78,7.04-3.71,0,0-.49-3.52,1.6-7.9,2.09-4.38,3.96-10.84,4.52-14.53,.56-3.68,.42-6.26,1.6-8.34,1.18-2.09,8.83-10.08,22.52-12.95,0,0,2.65-2.14,4.11-2.35Z"/>
          <path class="cls-42" d="M105.36,77.02s-13.44,7.37-26.64,11.82c-13.21,4.45-30.79,12.18-30.79,12.18,0,0,16.89-7.93,22.45-12,5.56-4.07,6.95-7.31,6.95-7.31,0,0-12.52,3.67-18.18,6.76,0,0,9.25-7.67,14.52-17.31l2.98-6.71,22.36-.76h21.77l-8.48,9.36-6.93,3.98Z"/>
          <path class="cls-12" d="M130.85,49.49c-1.11,7.2-6.99,20.54-9.33,25.64-.59,1.3-.96,2.07-.96,2.07-4.18-2.88-15.2-.19-15.2-.19l5.75-10.38-2.03,.09c-4.92,7.04-13.35,14-13.35,14h-6.86c5.37-4.08,12.88-14.09,12.88-14.09l-3.92,.37c-4.75,5.1-14.57,12.88-14.57,12.88l-13.65-.37c4.75-4.4,9.89-13.21,9.89-13.21l-1.72,.42c-4.17,6.08-14.13,11.03-14.13,11.03l-5.19-.92c.72-.44,1.42-.9,2.11-1.36,15.31-10.42,21.32-25.77,21.32-25.77,3.18-2.52,7.26-3.64,7.26-3.64-.84,2.76-.98,9.06-.98,9.06,2.78-.42,12.3-6.67,17.93-8.76,5.64-2.08,19.88-2.85,19.88-2.85,3.54,2.02,4.86,5.98,4.86,5.98Z"/>
          <path class="cls-14" d="M111.81,102.51s1.62-2.6,6.53-3.1l-6.49-17.29s-7.32-2.32-12.51,3.99c0,0,3.8,8.53,12.47,16.4Z"/>
          <path class="cls-11" d="M79.27,194.31v.06c-.25,.59-3.31,3.98-7.37,5.27-4.21,1.34-9.96,.28-9.96,.28l-3.01,.97-1.02,1.64c-5.47,.7-9.36,0-9.36,0-.04-.46-.06-.93-.06-1.4-.05-2.67,.3-5.24,.3-5.24,0,0,.87-1.53,2.26-6.88,1.39-5.35,.92-15.41,.92-15.41,8.9-.18,18.45-4.45,18.45-4.45l-11.81,18.59,1.29,1.39-1.62,1.9s1.44,.88,4.68,1.34c3.24,.46,16.31,1.58,16.31,1.95Z"/>
          <path class="cls-24" d="M135.21,180.27c-.34,1.06-.97,2.41-2.05,4.08-3.62,5.56-8.83,5.35-10.02,5.91-1.18,.56-4.31,3.76-4.31,3.76,0,0-3.06,2.64-8.13,1.87l-.9-1.42h0l-.63-1.01s1.04-4.45,1.94-9.8c.91-5.36-3.33-20.57-3.33-20.57,0,0,11.31-2.78,15.94-6.65l-6.3,24.49,1.48-.74-1.2,2.96s9.27-1.2,17.61-6.3c0,0,.71,.95-.1,3.43Z"/>
          <path class="cls-22" d="M132.28,86.82s.45,2.02-.52,3.62l-.42,.34-.17,2.13s-.48,.29-1.52,.61l-.07,.02c-1.53,.45-4.21,.94-8.31,.68-.43-.02-.87-.06-1.32-.1l-.52-.73-3.58-.17-2.31-6.63,.23-.34,4.63-.87,.51-3.68s7.54-3.81,7.9-3.67c.34,.14,5.84,1.42,5.84,1.42,0,0,.73,2.02-.25,3.62,0,0,.52,2.29-.1,3.75Z"/>
          <path class="cls-2" d="M24.64,185.04s10.32-64.55,52.16-88.26c0,0-44.51,13.46-55.49,35.66-12.17,24.59,3.34,52.6,3.34,52.6Z"/>
          <path class="cls-29" d="M121.53,75.14c-.59,1.3-.96,2.07-.96,2.07-4.18-2.88-15.2-.19-15.2-.19l5.75-10.38-2.03,.09c-4.92,7.04-13.35,14-13.35,14h-6.86c5.37-4.08,12.88-14.09,12.88-14.09l-3.92,.37c-4.75,5.1-14.57,12.88-14.57,12.88l-13.65-.37c4.75-4.4,9.89-13.21,9.89-13.21l-1.72,.42c-4.17,6.08-14.13,11.03-14.13,11.03l-5.19-.92c.72-.44,1.42-.9,2.11-1.36l3.22,.48c4.26-1.94,13.74-10.05,13.74-10.05h3.96c-2.71,4.59-9.52,12.12-9.52,12.12h10.91l14.46-12.12,6.46-.56-11.54,13.7,2.92,.34c5.98-3.33,13.65-14.04,13.65-14.04l3.59,.49-3.59,8.62c9.96-2.08,12.69,.69,12.69,.69Z"/>
          <path class="cls-33" d="M85.35,101.07s13.28-.96,21.33-3.89c0,0-11.17,1.95-22.44,1.94l1.11,1.94Z"/>
          <path class="cls-25" d="M123.81,119.1s-3.43,.18-5.47,.84c-2.04,.65-10.38,5.09-15.57,6.39-5.19,1.3-10.76,0-20.3,.37-9.25,.35-12.64,3.5-12.85,3.7l2.79-6.24h0s5.98-1.9,18.59-.61c12.61,1.3,21.84-5.65,30.9-7.69h0c1.17,1.96,1.91,3.24,1.91,3.24Z"/>
          <path class="cls-41" d="M108.84,124.16c-2.14,.9-4.29,1.72-6.07,2.16-5.19,1.3-10.76,0-20.3,.37-.23,0-.45,.02-.67,.04,.12-4.56,.06-10.6-.99-12.61,0,0,19,2.58,28.04,10.03Z"/>
          <path class="cls-21" d="M81.45,112.15s13.49,2.69,24.68,6.21c0,0-7.35-8.62-24.68-6.21Z"/>
          <path class="cls-28" d="M111.81,102.51s3.34-2.46,6.53-3.1l-.34-.92s-4.66,.5-6.51,3.56l.32,.46Z"/>
          <path class="cls-28" d="M101.08,89.34s4.86-4.9,11.85-4.37l-1.07-2.85s-7.37-2.36-12.51,3.99c0,0,.73,1.61,1.73,3.24Z"/>
          <path class="cls-28" d="M118.39,85.37l1.03,8.02s-2.28-3.97-1.03-8.02Z"/>
          <path class="cls-28" d="M117.51,143.66s5.28,1.85,8.9,.74l1.99-2.04s-1.25,1.67-10.89,1.3Z"/>
          <path class="cls-28" d="M63.84,151.54s4.03,.33,7.81,4.89l2.11-1.28s-1.78-3.97-9.26-4.63l-.66,1.01Z"/>
          <path class="cls-27" d="M108.95,167.68s7.27,.78,12.36-1.91l2.4-9.34s-3.64,3.24-15.94,6.65l1.18,4.61Z"/>
          <path class="cls-27" d="M51.98,173.6l.06,5.37s8.88,.02,13.54-2.21l4.84-7.61s-12.05,4.36-18.44,4.45Z"/>
          <path class="cls-27" d="M79.27,194.31c0,.37-3.15,3.98-7.37,5.33-4.21,1.34-9.96,.28-9.96,.28l-3.01,.97-1.02,1.64c-5.47,.7-9.36,0-9.36,0-.04-.46-.06-.93-.06-1.4,.24,.01,5.89,.41,7.76,0,1.89-.42,6.21-1.67,6.21-1.67,0,0,12.09,1.62,16.82-5.14Z"/>
          <path class="cls-27" d="M135.21,180.27c-.34,1.06-.97,2.41-2.05,4.08-3.62,5.56-8.83,5.35-10.02,5.91-1.18,.56-4.31,3.76-4.31,3.76,0,0-3.06,2.64-8.13,1.87l-.9-1.42c.29,.02,6.17,.5,8.82-1.14,2.71-1.69,3.96-3.54,3.96-3.54,0,0,7.8,.13,12.62-9.5Z"/>
          <path class="cls-32" d="M112.93,108.11l-53.07,18.18s.13,3.64,2.05,5.76l53.29-20.34v-2.2l-2.27-1.4Z"/>
          <polygon class="cls-32" points="125.84 104.06 154.49 94.3 160.88 92.91 157.08 97.18 128.84 107.24 128.95 106.49 125.84 104.06"/>
          <polygon class="cls-31" points="153.86 94.51 157.27 90.09 180.53 86.16 164.31 97.18 155.28 97.83 157.08 97.18 160.88 92.91 153.86 94.51"/>
          <polygon class="cls-37" points="161.63 92.52 163.34 90.23 175.57 87.73 167.56 91.99 161.63 92.52"/>
          <path class="cls-37" d="M106.68,110.25s2.17,.12,2.17,3.88l6.35-2.42v-2.2l-2.27-1.4-6.25,2.14Z"/>
          <path class="cls-37" d="M125.84,104.06l6.11-2.08s2.12,.37,1.49,3.62l-4.59,1.63,.11-.75-3.11-2.43Z"/>
          <path class="cls-37" d="M59.86,126.28s2.24,.54,2.05,5.76c0,0-3.16-1.63-2.05-5.76Z"/>
          <path class="cls-29" d="M119.38,2.35s2.95,2.54,4.11,7.94c1.16,5.4,0,20.5,0,20.5l1.6-1.39s-.53-26.27-1.6-29.4c0,0-2.24,.15-4.11,2.35Z"/>
          <polygon class="cls-29" points="123.49 31.75 123.49 41.15 125.99 43.51 125.08 40.8 124.85 30.66 123.49 31.75"/>
          <polygon class="cls-1" points="44.18 111.12 46.31 107.59 45.84 110.16 44.18 111.12"/>
          <path class="cls-26" d="M18.41,144.59s6.44-13.7,15.12-16.27c0,0-4.07,17.89-15.12,16.27Z"/>
          <path class="cls-26" d="M29.75,139.96s.47-2.07,2.45-2.22c0,0-1.13,2.5-2.45,2.22Z"/>
          <path class="cls-3" d="M50.59,104.84s4.3-7.7,11.33-7.66c0,0-2.3,5.05-11.33,7.66Z"/>
          <path class="cls-10" d="M125.99,43.51l-2.5-2.36-17.52,4.63-10.66,3.85,2.52-.28s-6.09,3.02-7.83,3.34c-1.74,.32-1.72,0-1.72,0l-1.22,5.05s12-5.28,17.98-7.14c0,0-8.5,9.01-20.16,16.96,0,0,9.45-4.26,23.96-14,0,0,9.49-4.17,13.39-3.94,0,0-13.25,11.72-27.57,17.1,0,0,11.99-3.06,23.35-10.47,11.36-7.41,10.38-10.79,10.38-10.79l-2.4-1.95Z"/>
          <path class="cls-20" d="M117.6,31.88s-7.46,8.3-14.13,11.63c-6.67,3.34-11.08,2.27-11.08,2.27l25.21-13.9Z"/>
          <path class="cls-8" d="M99.98,85.37s3.62-4.23,11.87-3.26l5.64-5.58s-1.88-1.11-7.75-.31c0,0-4.8,4.83-9.55,7.75l-.22,1.4Z"/>
          <path class="cls-38" d="M70.02,136.36s12.16-1.15,17.91-6.45l.93-3.25s-8.05-.97-17.02,2.31l-1.83,7.39Z"/>
          <path class="cls-38" d="M113.77,136.36l8.95-14.85-1.45-2.17s-7.49,1.85-15.04,7.19l7.55,9.83Z"/>
          <path class="cls-38" d="M63.66,170.15s-5.69,2.45-10.51,3.39c0,0,4.88-.49,10.06-2.09l.45-1.3Z"/>
          <path class="cls-38" d="M111.18,160.67s5.86-.84,10.7-3.01c0,0-3.12,2.14-10.81,4.46l.11-1.44Z"/>
          <path class="cls-40" d="M79.27,194.31v.06c-.25,.59-3.31,3.98-7.37,5.27-4.21,1.34-9.96,.28-9.96,.28l-3.01,.97-1.02,1.64c-5.47,.7-9.36,0-9.36,0-.04-.46-.06-.93-.06-1.4-.05-2.67,.3-5.24,.3-5.24,0,0,.87-1.53,2.26-6.88,1.39-5.35,.92-15.41,.92-15.41,8.9-.18,18.45-4.45,18.45-4.45l-11.81,18.59-3.29,2.83,4.59-1.44-1.62,1.9s-1.2,5.61,9.04,5.84c10.24,.23,11.95-2.55,11.95-2.55Z"/>
          <path class="cls-19" d="M135.21,180.27c-.34,1.06-.97,2.41-2.05,4.08-3.62,5.56-8.83,5.35-10.02,5.91-1.18,.56-4.31,3.76-4.31,3.76,0,0-3.06,2.64-8.13,1.87l-.9-1.42h0l-.63-1.01s1.04-4.45,1.94-9.8c.91-5.36-3.33-20.57-3.33-20.57,0,0,11.31-2.78,15.94-6.65l-6.3,24.49-1.5,3.19,2.99-3.93-1.2,2.96s.51,3.95,.93,4.2c.41,.24,8.27,.48,12.23-2.3,3.96-2.78,4.45-8.2,4.45-8.2,0,0,.71,.95-.1,3.43Z"/>
          <path class="cls-18" d="M61.9,132.04s34.66-15.74,46.94-17.91l-46.94,17.91Z"/>
          <polygon class="cls-9" points="133.43 105.61 156.5 96.78 160.46 93.39 158.27 95.86 163.04 96.07 180.53 86.16 164.31 97.18 155.28 97.83 133.43 105.61"/>
          <path class="cls-38" d="M118.01,114.83l-4.12-1.2-.18-1.2h1.48v-2.92l-3.75-2.32,.37-4.68c-9.55-8.8-12.47-16.41-12.47-16.41,0,0,5.41,8.52,12.91,15.88l.32,4.48,4.56,2.92,.89,5.46Z"/>
          <path class="cls-38" d="M125.84,84.36s-.79,1.04-.62,2.57l4.42,.07-4.46,.59s-.4,.9,.65,2.83h3.07l-3.07,.51s.07,1.12,.49,2.47l3.32,.13-.07,.02c-1.53,.45-4.21,.94-8.31,.68l1.32-6.64,1.8-2.21,.95-3.14,.98-.14s2.08,4.63,5.97,4.73c0,0-2.57,.38-4.85-2.4l-1.58-.07Z"/>
          <path class="cls-39" d="M59.21,171.84s.02-12.48-3.51-14.62c0,0-1.39,3.28-2.55,16.31l6.06-1.69Z"/>
          <path class="cls-17" d="M111.07,162.11s.17-9.6,.32-12.03c0,0,4.98,4.8,5.44,9.8l-5.76,2.23Z"/>
          <path class="cls-7" d="M112.93,102.51s.34,1.76,.61,2.5c.27,.74,3.96,4.17,3.96,4.17l2.56-.74,1.21-.05,.83-.65,2.36-.14,.79-.37,3.71-.75s-5.95-4.73-9.53-6.42c0,0-4.17,.35-6.49,2.43Z"/>
          <path class="cls-7" d="M126.79,78.03l5.79,6.77s-3.74-.74-5.33-2.57c-1.59-1.83-1.41-3.27-1.41-3.27l.95-.94Z"/>
          <path class="cls-38" d="M132.38,83.07l-2.35-4.23,2.6,.61s1.07,2.29-.25,3.62Z"/>
          <path class="cls-8" d="M88.17,55.12l-12.43,5.35s4.97-7.83,6.36-10.7c0,0,3.34-2.6,7.05-3.71l-.98,9.06Z"/>
          <path class="cls-7" d="M96.86,15.29s8.41-.65,15.27-3.06c6.86-2.41,7.25-9.89,7.25-9.89,0,0-11,.71-22.52,12.95Z"/>
          <path class="cls-7" d="M114.5,75.96s11.54-12.1,16.36-26.47c0,0-2.78,16.5-10.29,27.71,0,0-3.87-1.26-6.07-1.25Z"/>
          <polygon class="cls-38" points="61.81 129.76 63.47 128.64 81.92 122.3 61.81 129.76"/>
          <polygon class="cls-38" points="157.77 93.62 141.1 99.59 155.81 95.23 157.77 93.62"/>
          <polygon class="cls-38" points="136.21 102.51 140.59 100.5 145.24 99.59 136.21 102.51"/>
          <polygon class="cls-8" points="115.19 85.98 115.84 93.22 113.53 86.59 113.76 86.25 115.19 85.98"/>
          <path class="cls-36" d="M123.49,0l.14,13.76-.14,27.4,1.55-8.23,.07-4.56h1.58s-.24-4.11-1.72-7.44c0,0,1.72-2.07-1.48-20.92Z"/>
          <path class="cls-36" d="M124.85,30.66l-1.37,10.5,2.5,3.22,4.04,6.07-3.26,10.58-4.1,11.57,3.68-9.24-4.58,13.86s4.8-7.48,7.03-19.01l2.7-9.69s-1.82-2.01-5.76-5.72l-.66-1.98-.23-10.15Z"/>
          <path class="cls-36" d="M126.79,78.03l4.82,2.01s.6,1.72,0,3.03c0,0,.91,2.05,.31,3.58,0,0,.35,2.37-.48,3.76l-.48,.21,.21,2.29,.17-2.13,.58-.37s.95-.39,.36-3.59c0,0,.96-1.5,.1-3.75,0,0,1.02-.04,.66-3.84l-6.25-1.2Z"/>
          <path class="cls-36" d="M114.31,88.81l2.81,10.78,11.84,6.9s-4.62-3.97-10.46-7.17l-4.19-10.51Z"/>
          <polygon class="cls-36" points="153.86 94.51 157.27 90.09 180.53 86.16 178.58 87.49 182.42 85.37 156.67 89.49 153.86 94.51"/>
          <polygon class="cls-36" points="119.64 115.21 123.81 119.1 121.62 115.4 119.64 115.21"/>
          <path class="cls-36" d="M122.71,121.51s5.83,10.64,5.68,20.85l-1.99,2.04-4.52,13.25-.75,.32,4.56-13.46,1.77-1.97s-2.36-9.66-4.75-21.03Z"/>
          <polygon class="cls-36" points="123.72 156.43 121.14 158.1 116.83 181.79 115.91 184.11 118.89 180.18 117.41 180.92 123.72 156.43"/>
          <path class="cls-36" d="M117.69,183.14s3.13-.23,8.08-1.35c4.95-1.11,9.53-4.95,9.53-4.95,0,0-10.85,5.23-17.61,6.3Z"/>
          <path class="cls-36" d="M87.93,129.91s-2.94,14.67-13.15,22.92l-1.02,2.32-4.15,2.51-5.96,12.49,4.76-12.5,4.39-2.37,.96-3.11s7.66-4.39,14.17-22.27Z"/>
          <path class="cls-36" d="M70.42,169.15l-2.51,1-10.42,18.07-2.18,2.34,4.59-1.44-1.29-1.39s12.04-18.92,11.81-18.59Z"/>
          <path class="cls-36" d="M58.28,191.02s1.46,1.41,6.25,2.67c4.8,1.26,14.73,.68,14.73,.68,0,0-1.57-.97-8.33-1.24s-12.65-2.11-12.65-2.11Z"/>
          <polygon class="cls-34" points="83.45 97.73 88.05 96.12 85.72 96.21 83.45 97.73"/>
          <path class="cls-34" d="M85.35,101.07l1.88-.16s-7.4,6.15-8.71,7.82c-1.32,1.67-4.15,9.96-4.15,9.96,0,0,2.46-8.03,3.81-10.59,1.34-2.56,7.18-7.02,7.18-7.02Z"/>
          <polygon class="cls-34" points="59.86 126.28 73.74 122.3 106.68 110.25 59.86 126.28"/>
          <path class="cls-34" d="M55.97,156.73l9.95-4.63-2.07-.56s-5.27,1.72-7.88,5.19Z"/>
          <path class="cls-34" d="M51.98,173.59s6.28-.37,9.8-1.75l-8.63,.95-1.17,.8Z"/>
          <polygon class="cls-34" points="107.78 163.08 108.87 162.71 108.25 164.84 107.78 163.08"/>
          <ellipse class="cls-46" cx="45.75" cy="139.96" rx="45.75" ry="44.03"/>
          <ellipse class="cls-45" cx="118.4" cy="106.47" rx="27.49" ry="26.46"/>
          <ellipse class="cls-44" cx="166.26" cy="91.06" rx="15.11" ry="14.54"/>
          <path class="cls-4" d="M55.1,105.36s.34-1.71,1.53-1.94c1.2-.23,1.88,.36,1.88,.36l-3.41,1.57Z"/>
        </g>
      </g>
    </g>
  </g>
</svg>